<svg xmlns="http://www.w3.org/2000/svg" xmlns:xlink="http://www.w3.org/1999/xlink" viewBox="0 0 656.7 888.35"><defs><style>.cls-1{isolation:isolate;}.cls-2{fill:#af6f56;}.cls-3{fill:#aa6d5c;}.cls-4{fill:#7c452f;}.cls-5{fill:#e5bd7f;}.cls-6{fill:#d38d5e;}.cls-7{fill:#d39f59;}.cls-8{fill:#8c6ea4;}.cls-9{fill:#645778;}.cls-10{fill:#a68ac0;}.cls-11{fill:#514266;}.cls-12{fill:#8c77a4;}.cls-13{fill:#cc8a75;}.cls-14{fill:#66321b;}.cls-15,.cls-22,.cls-27,.cls-28,.cls-35,.cls-36,.cls-37,.cls-46,.cls-53,.cls-55,.cls-57,.cls-58,.cls-61,.cls-63,.cls-64,.cls-65,.cls-78,.cls-79,.cls-84,.cls-85{mix-blend-mode:soft-light;}.cls-15,.cls-57,.cls-61,.cls-63,.cls-64,.cls-65,.cls-78,.cls-84{opacity:0.88;}.cls-15{fill:url(#linear-gradient);}.cls-16{fill:#f1f3fd;}.cls-17{fill:#cec2d3;}.cls-18{fill:#9490a5;}.cls-19{fill:#e9ebf6;}.cls-20{fill:#bdadc3;}.cls-21{fill:#e0d9e4;}.cls-22{fill:url(#linear-gradient-2);}.cls-23{fill:#afc176;}.cls-24{fill:#9ead61;}.cls-25{fill:#bfcc8b;}.cls-26{fill:#789352;}.cls-27,.cls-79,.cls-85{opacity:0.77;}.cls-27{fill:url(#linear-gradient-3);}.cls-28{fill:url(#linear-gradient-4);}.cls-29{fill:#f2e7d7;}.cls-30{fill:#f9fae8;}.cls-31{fill:#e5d8c7;}.cls-32{fill:#d6cac5;}.cls-33{fill:#958fa7;}.cls-34{fill:#b0a3b5;}.cls-35{fill:url(#linear-gradient-5);}.cls-36{fill:url(#linear-gradient-6);}.cls-37{fill:url(#linear-gradient-7);}.cls-38{fill:#99a4c6;}.cls-39{fill:#5b804e;}.cls-40{fill:#b2ba68;}.cls-41{fill:#b28ea0;}.cls-42{fill:#64354e;}.cls-43{fill:#724a5c;}.cls-44{fill:#8f5972;}.cls-45{fill:#452737;}.cls-46{fill:url(#linear-gradient-8);}.cls-47{fill:#b3cbeb;}.cls-48{fill:#7997bc;}.cls-49{fill:#9e5454;}.cls-50{fill:#844242;}.cls-51{fill:#b36666;}.cls-52{fill:#6b3434;}.cls-54{fill:#96aa65;}.cls-55{opacity:0.55;}.cls-56{fill:#48683c;}.cls-57{fill:url(#linear-gradient-9);}.cls-58{opacity:0.54;}.cls-59{fill:#9e8698;}.cls-60{fill:#5e7fa7;}.cls-61{fill:url(#linear-gradient-10);}.cls-62{fill:#fce1be;}.cls-63{fill:url(#linear-gradient-11);}.cls-64{fill:url(#linear-gradient-12);}.cls-65{fill:url(#linear-gradient-13);}.cls-66{fill:#9d6c84;}.cls-67{fill:#4e5b24;}.cls-68{fill:#7b9546;}.cls-69{fill:#aeb265;}.cls-70{fill:#87a558;}.cls-71{fill:#566e29;}.cls-72{fill:#4b5623;}.cls-73{fill:#6e8836;}.cls-74{fill:#915846;}.cls-75{fill:#5f3620;}.cls-76{fill:#472515;}.cls-77{fill:#71432f;}.cls-78{fill:url(#linear-gradient-14);}.cls-79{fill:url(#linear-gradient-15);}.cls-80{fill:#754526;}.cls-81{fill:#5f6f30;}.cls-82{fill:#6b7f35;}.cls-83{fill:#683323;}.cls-84{fill:url(#linear-gradient-16);}.cls-85{fill:url(#linear-gradient-17);}</style><linearGradient id="linear-gradient" x1="158.72" y1="80.46" x2="267.86" y2="80.46" gradientUnits="userSpaceOnUse"><stop offset="0" stop-color="#b2bbc3"/><stop offset="1" stop-color="#162224"/></linearGradient><linearGradient id="linear-gradient-2" x1="359.55" y1="68.99" x2="446.88" y2="68.99" gradientUnits="userSpaceOnUse"><stop offset="0" stop-color="#b7bdba"/><stop offset="1" stop-color="#1b231e"/></linearGradient><linearGradient id="linear-gradient-3" y1="399.35" x2="656.7" y2="399.35" gradientUnits="userSpaceOnUse"><stop offset="0" stop-color="#c9c9c9"/><stop offset="1" stop-color="#575757"/></linearGradient><linearGradient id="linear-gradient-4" x1="2628.34" y1="371.44" x2="2353.8" y2="371.44" gradientTransform="translate(-1973.62)" gradientUnits="userSpaceOnUse"><stop offset="0" stop-color="gray"/><stop offset="1"/></linearGradient><linearGradient id="linear-gradient-5" x1="108.42" y1="159.89" x2="166.19" y2="159.89" xlink:href="#linear-gradient-2"/><linearGradient id="linear-gradient-6" x1="2356.42" y1="409.06" x2="2075.25" y2="409.06" xlink:href="#linear-gradient-4"/><linearGradient id="linear-gradient-7" x1="656.7" y1="412.83" x2="572.68" y2="412.83" gradientTransform="matrix(1, 0, 0, 1, 0, 0)" xlink:href="#linear-gradient-4"/><linearGradient id="linear-gradient-8" x1="312.2" y1="888.35" x2="312.2" y2="517.27" gradientUnits="userSpaceOnUse"><stop offset="0" stop-color="#fff"/><stop offset="1" stop-color="#1d2328"/></linearGradient><linearGradient id="linear-gradient-9" x1="0" y1="530.34" x2="656.7" y2="530.34" xlink:href="#linear-gradient"/><linearGradient id="linear-gradient-10" x1="224.48" y1="260.88" x2="380.17" y2="260.88" xlink:href="#linear-gradient"/><linearGradient id="linear-gradient-11" x1="203.19" y1="454.73" x2="577.29" y2="454.73" xlink:href="#linear-gradient"/><linearGradient id="linear-gradient-12" x1="264.2" y1="209.59" x2="644.01" y2="209.59" xlink:href="#linear-gradient"/><linearGradient id="linear-gradient-13" x1="28.84" y1="334" x2="210.51" y2="334" xlink:href="#linear-gradient"/><linearGradient id="linear-gradient-14" x1="526.53" y1="349.12" x2="624.26" y2="349.12" xlink:href="#linear-gradient"/><linearGradient id="linear-gradient-15" x1="178.23" y1="328.11" x2="291.13" y2="328.11" gradientUnits="userSpaceOnUse"><stop offset="0" stop-color="#bababa"/><stop offset="1" stop-color="#575757"/></linearGradient><linearGradient id="linear-gradient-16" x1="200.66" y1="300.96" x2="282.76" y2="300.96" xlink:href="#linear-gradient"/><linearGradient id="linear-gradient-17" x1="79.01" y1="443.37" x2="195.21" y2="443.37" xlink:href="#linear-gradient-15"/></defs><g class="cls-1"><g id="Layer_2" data-name="Layer 2"><g id="_Layer_" data-name="&lt;Layer&gt;"><polygon class="cls-2" points="227.85 758.71 234.49 780.96 200.84 801.57 240.24 782.48 234.11 760.59 227.85 758.71"/><polygon class="cls-2" points="454 854.08 465.32 879.59 449.91 858.57 454 854.08"/><polygon class="cls-2" points="512.34 727.63 518.42 752.17 531.62 773.89 522.39 750.36 518.42 721.75 512.34 727.63"/><polygon class="cls-2" points="533.7 706.97 560.32 724.89 538.59 702.24 533.7 706.97"/><polygon class="cls-2" points="190.12 747.34 188.92 754.19 193.97 767.09 191.44 754.59 195.02 748.82 190.12 747.34"/><polygon class="cls-2" points="97.73 635.45 92.74 662.05 102.14 637.78 99.91 636.6 97.73 635.45"/><polygon class="cls-3" points="216.36 135.99 234.25 128.04 245.63 159.89 229.51 160.92 216.36 135.99"/><polygon class="cls-4" points="234.25 128.04 254.54 123.65 255.35 140.63 258.73 148.04 245.63 159.89 234.25 128.04"/><polygon class="cls-5" points="195.12 109.55 216.94 137.09 216.36 135.99 198.86 109.37 195.12 109.55"/><path class="cls-6" d="M258.24,87.15l-3.69,36.73c-.12-.2,1.16-34.93,1.16-34.93Z"/><path class="cls-7" d="M229.08,107.92c-.2,0,5.17,20.12,5.17,20.12l2.46-.53-7.49-19.69Z"/><polygon class="cls-8" points="160.93 76.1 221.23 71.63 229.08 107.92 195.12 109.55 160.93 76.1"/><polygon class="cls-9" points="221.23 71.63 234.79 2.13 267.86 34.19 221.23 71.63"/><polygon class="cls-10" points="158.72 39.41 234.79 2.13 180.42 0 158.72 39.41"/><polygon class="cls-10" points="221.23 71.63 158.72 39.41 160.93 76.1 221.23 71.63"/><polygon class="cls-11" points="229.08 107.92 258.24 87.15 267.86 34.19 221.23 71.63 229.08 107.92"/><polygon class="cls-12" points="158.72 39.41 234.79 2.13 221.23 71.63 158.72 39.41"/><polygon class="cls-13" points="234.25 128.04 229.51 160.92 216.36 135.99 234.25 128.04"/><polygon class="cls-14" points="255.35 140.63 234.25 128.04 245.63 159.89 255.35 140.63"/><path class="cls-15" d="M254.55,123.88l3.69-36.73,9.62-53L234.79,2.13,180.42,0l-21.7,39.41,2.21,36.69,34.19,33.45,21.82,27.54,12.57,23.83,16.12-1L258.73,148l-3.38-7.41ZM216.36,136l-17.5-26.62,30-1.44L234.25,128Zm20.35-8.48-7.49-19.69L255.71,89l-1.28,34.73Z"/><polygon class="cls-16" points="381.79 72.19 368.66 56.71 359.56 73.91 381.79 72.19"/><polygon class="cls-17" points="425.91 75.38 446.88 74.42 432.39 56.71 425.91 75.38"/><polygon class="cls-18" points="425.91 75.38 399.08 93.64 429.35 91.11 446.88 74.42 425.91 75.38"/><polygon class="cls-19" points="368.66 56.71 400.2 44.34 408.4 67.29 381.79 72.19 368.66 56.71"/><polygon class="cls-20" points="425.71 46.4 400.2 44.34 408.4 67.29 415.5 70.57 425.91 75.38 432.39 56.71 425.71 46.4"/><polygon class="cls-21" points="381.79 72.19 359.56 73.91 364.11 88.27 382.01 91.11 399.08 93.64 381.79 72.19"/><polygon class="cls-17" points="381.79 72.19 408.4 67.29 425.91 75.38 399.08 93.64 381.79 72.19"/><polygon class="cls-22" points="446.88 74.42 432.39 56.71 425.71 46.4 400.2 44.34 368.66 56.71 359.56 73.91 364.11 88.27 382.01 91.11 399.08 93.64 429.35 91.11 446.88 74.42 446.88 74.42"/><polygon class="cls-23" points="0 394.02 77.42 325.67 175.83 297.73 399.32 297.12 380.17 424.96 324.05 414.37 149.72 402.31 0 394.02"/><polygon class="cls-24" points="250.56 320.1 280.31 333.37 322 291.81 175.83 297.73 250.56 320.1"/><polygon class="cls-25" points="0 394.02 253.98 394.92 324.05 414.37 222.06 430.88 203.19 460.81 125.38 498.35 21.78 436.47 0 394.02"/><polygon class="cls-26" points="333.34 401.43 264.2 387.04 324.05 407.55 380.77 425.07 493.16 473.95 508 488.92 607.1 450.08 656.7 419.52 588.12 421.79 518.29 408.8 380.17 411.1 333.34 401.43"/><polygon class="cls-23" points="508 488.92 493.16 473.95 359.87 488.27 203.19 460.81 125.38 498.35 363.91 506.9 508 488.92"/><polygon class="cls-26" points="399.32 297.12 485.2 297.12 595.47 328.43 644 371.06 656.7 419.52 588.12 421.79 518.29 408.8 385.73 412.77 332.39 402.31 399.32 297.12"/><path class="cls-27" d="M595.47,328.43,485.2,297.12H399.32L322,291.81l-146.17,5.92L77.42,325.67,0,394l21.78,42.45,103.6,61.88,238.53,8.55,144.09-18,99.1-38.84,49.6-30.56L644,371.06Z"/><polygon class="cls-28" points="548.74 360.6 514.78 376.4 380.17 418.48 613.33 419.52 654.71 411.94 644 371.06 595.47 328.43 577.67 323.36 548.74 360.6"/><polygon class="cls-29" points="308.14 207.38 330.87 212.96 319.45 267.78 301.41 250.63 298.16 241.96 308.14 207.38"/><polygon class="cls-30" points="330.87 212.96 341.48 145.37 308.14 207.38 330.87 212.96"/><polygon class="cls-31" points="330.87 212.96 354.61 205.99 349.76 239.93 319.45 267.78 330.87 212.96"/><polygon class="cls-32" points="354.61 205.99 373.61 198.1 380.17 223.87 373.99 230.64 349.76 239.93 354.61 205.99"/><polygon class="cls-31" points="354.61 205.99 341.48 145.37 373.61 198.1 354.61 205.99"/><polygon class="cls-21" points="108.42 160.64 116.87 169.95 131.05 176.96 130.43 162.5 108.42 160.64"/><polygon class="cls-19" points="144.5 143.89 131.05 142.81 108.42 160.64 130.43 162.5 144.5 143.89"/><polygon class="cls-16" points="131.05 142.81 114.65 151.19 108.42 160.64 131.05 142.81"/><polygon class="cls-33" points="162.33 149.47 155.35 159.14 150.3 175.24 166.19 160.64 162.33 149.47"/><polygon class="cls-34" points="162.33 149.47 130.43 162.5 131.05 176.96 150.3 175.24 160.97 160.64 162.33 149.47"/><polygon class="cls-17" points="130.43 162.5 144.5 143.89 162.33 149.47 130.43 162.5"/><polygon class="cls-35" points="162.54 150.1 162.33 149.47 144.5 143.89 131.05 142.81 114.65 151.19 108.42 160.64 116.87 169.95 131.05 176.96 150.3 175.24 166.19 160.64 162.54 150.1"/><polygon class="cls-36" points="210.51 411.81 159.92 413.61 101.63 429.4 222.06 430.88 382.8 424.96 378.13 418.62 273.57 390.3 171.51 387.23 210.51 411.81"/><polygon class="cls-37" points="620.78 411.94 583.78 410.48 579.12 411.94 572.68 415.32 579.86 417.75 627.39 418.8 646.03 426.1 656.7 419.52 651.47 399.56 620.78 411.94"/><polygon class="cls-38" points="316.69 439.98 222.06 437.7 203.19 460.81 359.87 495.08 496.43 480.42 577.29 449.42 512.63 428.47 379.67 430.42 316.69 439.98"/><polygon class="cls-39" points="589.41 584.92 633.06 527.07 656.7 419.52 607.1 450.08 589.41 584.92"/><polygon class="cls-26" points="153.76 546.94 125.38 498.35 363.91 506.9 245.09 579.27 182.86 571.18 153.76 546.94"/><polygon class="cls-40" points="21.78 436.47 35.96 532.73 0 394.02 21.78 436.47"/><polygon class="cls-41" points="41.3 517.27 88.29 563.1 121.43 647.97 75.36 623.63 41.3 517.27"/><polygon class="cls-42" points="289.35 851.98 468.33 838.39 422.71 888.35 289.35 851.98"/><polygon class="cls-43" points="245.7 764.08 339.05 695.79 324.3 650.39 149.72 735.17 245.7 764.08"/><polygon class="cls-44" points="339.05 695.79 289.35 851.98 245.7 764.08 339.05 695.79"/><polygon class="cls-41" points="121.43 647.97 182.86 571.18 149.72 735.17 121.43 647.97"/><polygon class="cls-45" points="339.05 695.79 468.33 838.39 504.55 735.17 339.05 695.79"/><polygon class="cls-43" points="483.18 665.85 504.55 735.17 548.19 692.95 583.15 590.37 483.18 665.85"/><polygon class="cls-44" points="121.43 647.97 182.86 571.18 153.76 546.94 88.29 563.1 121.43 647.97"/><polygon class="cls-42" points="149.72 735.17 324.3 650.39 245.09 579.27 149.72 735.17"/><polygon class="cls-43" points="289.35 851.98 339.05 695.79 468.33 838.39 289.35 851.98"/><polygon class="cls-42" points="483.81 665.91 504.55 735.17 339.05 695.79 324.3 650.39 483.81 665.91"/><polygon class="cls-44" points="182.86 571.18 149.72 735.17 245.09 579.27 182.86 571.18"/><polygon class="cls-46" points="491.48 666.66 324.26 650.39 245.05 579.27 182.81 571.18 153.71 546.94 88.24 563.1 41.25 517.27 75.31 623.63 97.69 635.45 92.69 662.05 102.09 637.78 121.38 647.97 149.72 735.17 190.08 747.34 188.87 754.19 193.92 767.09 191.4 754.59 194.97 748.82 227.81 758.71 234.44 780.96 200.79 801.57 240.2 782.48 234.06 760.59 245.65 764.08 289.3 851.98 422.66 888.35 449.86 858.57 465.28 879.59 453.95 854.08 468.33 838.39 504.5 735.17 512.29 727.63 518.37 752.17 531.57 773.89 522.34 750.36 518.37 721.75 533.65 706.97 560.27 724.89 538.54 702.24 548.19 692.95 583.15 590.37 491.48 666.66"/><polygon class="cls-47" points="203.19 460.81 222.06 437.7 250.65 432.1 382.8 453.45 203.19 460.81"/><polygon class="cls-48" points="249.88 432.25 382.8 453.45 577.29 449.42 511.97 427.85 379.67 430.42 322.35 418.62 249.88 432.25"/><polygon class="cls-49" points="422.91 196.89 422.91 253.88 513.03 257.51 476.05 130.82 422.91 196.89"/><polygon class="cls-50" points="476.05 130.82 513.03 257.51 554.42 235.18 518.99 152.58 476.05 130.82"/><polygon class="cls-51" points="399.32 145.97 354.61 317.3 422.91 253.88 422.91 196.89 399.32 145.97"/><polygon class="cls-49" points="264.2 387.04 354.61 317.3 422.91 253.88 378.13 418.62 264.2 387.04"/><polygon class="cls-50" points="422.91 253.88 378.13 418.62 518.29 408.8 513.03 257.51 422.91 253.88"/><polygon class="cls-52" points="554.42 235.18 513.03 257.51 518.29 408.8 620.78 411.94 596.69 383.88 580.46 337.53 554.42 235.18"/><polygon class="cls-51" points="289.35 311.08 315.01 322.58 319.45 267.78 301.41 250.63 289.35 311.08"/><polygon class="cls-49" points="315.01 322.58 354.61 317.3 349.76 239.93 319.45 267.78 315.01 322.58"/><polygon class="cls-49" points="315.01 322.58 289.35 311.08 224.48 369.57 278 376.4 318.7 345 315.01 322.58"/><polygon class="cls-50" points="349.76 239.93 373.99 230.64 375.72 236.41 354.61 317.3 349.76 239.93"/><polygon class="cls-53" points="300.76 253.88 319.45 267.78 301.41 250.63 300.76 253.88"/><polygon class="cls-53" points="319.45 267.78 350.04 244.37 373.99 230.64 349.76 239.93 319.45 267.78"/><polygon class="cls-32" points="301.41 250.63 298.16 241.96 319.45 267.78 301.41 250.63"/><polygon class="cls-54" points="125.38 498.35 21.78 436.47 35.96 532.73 88.29 563.1 153.76 546.94 125.38 498.35"/><polygon class="cls-55" points="88.29 563.1 152.14 554.55 182.86 571.18 153.76 546.94 88.29 563.1"/><polygon class="cls-55" points="50.8 546.94 88.29 563.1 48.6 540.06 50.8 546.94"/><polygon class="cls-56" points="491.48 666.66 363.91 506.9 508 488.92 607.1 450.08 589.41 584.92 491.48 666.66"/><polygon class="cls-39" points="245.09 579.27 324.3 650.39 491.48 666.66 363.91 506.9 245.09 579.27"/><polygon class="cls-57" points="607.1 450.08 508 488.92 363.91 506.9 125.38 498.35 21.78 436.47 0 394.02 35.96 532.73 88.29 563.1 153.76 546.94 182.86 571.18 245.09 579.27 324.3 650.39 491.48 666.66 589.41 584.92 633.06 527.07 656.7 419.52 607.1 450.08"/><polygon class="cls-58" points="324.3 650.39 491.48 673.21 583.15 590.37 491.48 666.66 324.3 650.39"/><polygon class="cls-55" points="182.86 571.18 242.06 586.07 324.3 650.39 245.09 579.27 182.86 571.18"/><polygon class="cls-53" points="422.91 196.89 477.87 137.06 518.99 152.58 476.05 130.82 422.91 196.89"/><polygon class="cls-53" points="393.68 167.59 422.91 196.89 394.79 163.34 393.68 167.59"/><polygon class="cls-59" points="524.95 138.9 476.05 130.82 518.99 152.58 524.95 138.9"/><polygon class="cls-32" points="390.98 146.48 422.91 196.89 394.79 163.34 390.98 146.48"/><polygon class="cls-29" points="424.53 82.02 435.83 115.66 422.91 196.89 390.98 146.48 424.53 82.02"/><polygon class="cls-30" points="435.83 115.66 448.17 0.48 424.53 82.02 435.83 115.66"/><polygon class="cls-31" points="435.83 115.66 461.5 88.69 476.05 130.82 422.91 196.89 435.83 115.66"/><polygon class="cls-32" points="461.5 88.69 488.78 68.99 524.95 138.9 476.05 130.82 461.5 88.69"/><polygon class="cls-31" points="461.5 88.69 448.17 0.48 488.78 68.99 461.5 88.69"/><polygon class="cls-29" points="435.83 115.66 461.5 88.69 448.17 0.48 435.83 115.66"/><polygon class="cls-49" points="514.78 307.81 620.78 411.94 518.29 408.8 514.78 307.81"/><polygon class="cls-50" points="514.78 307.81 580.46 337.53 617.67 366.63 596.69 383.88 620.78 411.94 514.78 307.81"/><polygon class="cls-50" points="315.01 322.58 354.61 317.3 318.7 345 315.01 322.58"/><polygon class="cls-55" points="354.61 317.3 274.6 369.8 224.48 369.57 278 376.4 354.61 317.3"/><polygon class="cls-60" points="382.8 453.45 496.43 480.42 577.29 449.42 382.8 453.45"/><polygon class="cls-29" points="341.48 145.37 330.87 212.96 354.61 205.99 341.48 145.37"/><polygon class="cls-59" points="379.28 222.77 349.76 239.93 373.99 230.64 378.52 225.68 379.28 222.77"/><polygon class="cls-61" points="380.17 223.87 373.61 198.1 341.48 145.37 308.14 207.38 298.16 241.96 301.41 250.63 289.35 311.08 224.48 369.57 278 376.4 318.7 345 354.61 317.3 375.72 236.41 373.99 230.64 380.17 223.87"/><polygon class="cls-62" points="223.12 428.61 324.05 414.37 381.29 425.17 514.78 422.46 577.29 449.42 512.63 428.47 379.67 430.42 322.35 418.62 222.06 437.7 203.19 460.81 223.12 428.61"/><polygon class="cls-63" points="514.78 422.46 381.29 425.17 324.05 414.37 223.12 428.61 203.19 460.81 359.87 495.08 496.43 480.42 577.29 449.42 514.78 422.46"/><polygon class="cls-52" points="580.46 337.53 596.69 383.88 644 371.06 580.46 337.53"/><polygon class="cls-64" points="580.46 337.53 554.42 235.26 518.99 152.66 524.95 138.97 488.79 69.06 448.17 0.56 424.53 82.09 390.98 146.48 394.79 163.41 394.55 164.33 354.61 317.38 264.2 387.04 378.13 418.62 518.29 408.87 620.78 411.94 596.69 383.95 644 371.06 580.46 337.53"/><polygon class="cls-49" points="28.84 402.59 60.2 383.88 80.23 318.32 108.42 241.96 137.31 296.15 166.19 383.88 210.51 411.81 159.92 413.61 102.14 429.22 48.6 414.52 28.84 402.59"/><polygon class="cls-32" points="76.97 302.9 102.03 335.71 126.68 320.96 151.13 326.82 142.85 293.71 109.1 238.92 76.97 302.9"/><polygon class="cls-32" points="69.45 304.49 80.23 318.32 102.03 335.71 69.45 304.49"/><polygon class="cls-59" points="126.68 320.96 149.62 331.87 151.13 326.82 126.68 320.96"/><polygon class="cls-30" points="102.03 335.71 109.1 238.92 69.45 304.49 102.03 335.71"/><polygon class="cls-29" points="126.68 320.96 109.1 238.92 102.03 335.71 126.68 320.96"/><polygon class="cls-31" points="109.1 238.92 142.85 293.71 126.68 320.96 109.1 238.92"/><polygon class="cls-51" points="60.2 383.88 100.42 371.06 102.03 335.71 80.23 318.32 60.2 383.88"/><polygon class="cls-49" points="100.42 371.06 142.85 383.88 126.68 320.96 102.03 335.71 100.42 371.06"/><polygon class="cls-50" points="142.85 383.88 166.19 383.88 149.62 331.87 126.68 320.96 142.85 383.88"/><polygon class="cls-52" points="142.85 383.88 159.92 413.61 210.51 411.81 166.19 383.88 142.85 383.88"/><polygon class="cls-51" points="28.84 402.59 48.6 414.52 60.2 383.88 28.84 402.59"/><polygon class="cls-50" points="100.42 371.06 101.63 429.22 159.92 413.61 142.85 383.88 100.42 371.06"/><path class="cls-65" d="M166.19,383.88l-16.57-52,1.51-5.05-8.28-33.11L109.1,238.92,69.45,304.49l10.78,13.83-20,65.56L28.84,402.59,48.6,414.52l53,14.56c.51.14,58.29-15.47,58.29-15.47l50.59-1.8Z"/><polygon class="cls-55" points="79.38 321.12 102.03 335.71 80.23 318.32 79.38 321.12"/><polygon class="cls-55" points="102.03 335.71 127.53 324.26 149.62 331.87 126.68 320.96 102.03 335.71"/><polygon class="cls-31" points="448.17 182.65 476.05 148.09 477.87 159.89 448.17 182.65"/><polygon class="cls-66" points="496.48 834.14 483.14 829.29 479.91 840.81 496.48 834.14"/><polygon class="cls-66" points="253.58 803.49 239.03 801.33 230.34 807.02 237.21 823.74 269.22 829.29 253.58 803.49"/><polygon class="cls-66" points="503.82 789.13 494.93 806.36 512.34 822.49 533.7 805.51 517.06 780.14 503.82 789.13"/><polygon class="cls-67" points="561.77 367.82 579.29 351.9 585.62 347.52 624.26 352.37 607.75 368.85 579.01 364.33 561.77 367.82"/><polygon class="cls-68" points="585.62 347.52 545.92 310.2 526.53 335.9 561.77 367.82 585.62 347.52"/><polygon class="cls-69" points="561.77 367.82 526.53 335.9 537.11 361.3 561.77 367.82"/><polygon class="cls-69" points="550.86 292.95 560.53 298.1 573.21 280.49 550.86 292.95"/><polygon class="cls-70" points="560.53 298.1 570.02 325.88 545.92 310.2 550.86 292.95 560.53 298.1"/><polygon class="cls-71" points="595.5 310.2 570.02 325.88 585.62 347.52 624.26 352.37 623.08 335.25 595.5 310.2"/><polygon class="cls-72" points="586.39 289.71 573.21 280.49 560.53 298.1 570.02 325.88 595.5 310.2 586.39 289.71"/><polygon class="cls-73" points="570.02 325.88 545.92 310.2 562.36 368.19 585.62 347.52 570.02 325.88"/><polygon class="cls-74" points="574.91 379.2 580.17 375.46 579.86 417.75 572.68 415.32 575.4 399.35 574.91 379.2"/><polygon class="cls-75" points="580.17 375.46 577.71 371.41 580.92 364.63 582.01 372.1 580.17 375.46"/><polygon class="cls-76" points="580.17 375.46 582.01 372.1 591.39 371.23 583.94 374.84 584.38 415.73 579.86 417.75 580.17 375.46"/><polygon class="cls-75" points="577.71 371.41 575.45 374.65 565.19 369.23 574.91 379.2 580.17 375.46 577.71 371.41"/><polygon class="cls-76" points="565.19 369.23 563.7 371.69 561.77 367.82 564.9 367.19 565.19 369.23"/><polygon class="cls-74" points="563.7 371.69 565.19 369.23 574.91 379.2 563.7 371.69"/><polygon class="cls-76" points="577.71 371.41 581.15 366.22 580.92 364.63 579.01 364.33 576.68 364.8 577.71 371.41"/><polygon class="cls-76" points="589.46 369.03 592.68 368.19 593.36 366.58 590.95 366.18 589.46 369.03"/><polygon class="cls-77" points="575.45 374.65 574.91 379.2 579.86 417.75 580.17 375.46 575.45 374.65"/><polygon class="cls-75" points="582.01 372.1 589.46 369.03 592.68 368.19 591.39 371.23 582.01 372.1"/><path class="cls-78" d="M624.26,352.37l-1.18-17.12L595.5,310.2l-9.1-20.49-13.19-9.23L550.86,293l-4.94,17.25-19.39,25.7,10.58,25.4,24.66,6.52.46-.09-.46.09,1.93,3.87,11.21,7.52.49,20.14-2.72,16,7.18,2.43,4.52-2-.44-40.89,7.45-3.61,1.29-3,.68-1.6,14.39,2.26ZM589.46,369,582,372.1l-1.09-7.47-1.91-.3-2.32.47,1,6.61-2.26,3.24-10.26-5.42-.29-2-1.83.37L579,364.33l11.93,1.88Z"/><polygon class="cls-23" points="79.02 453.45 141.46 424.96 195.21 453.45 131.68 461.78 79.02 453.45"/><polygon class="cls-24" points="178.23 337.53 221.23 314.82 291.13 302.14 289.35 311.08 241.66 354.08 178.23 337.53"/><polygon class="cls-26" points="221.23 314.82 291.13 302.14 289.35 311.08 241.66 354.08 221.23 314.82"/><polygon class="cls-79" points="221.23 314.82 178.23 337.53 241.66 354.08 289.35 311.08 291.13 302.14 221.23 314.82"/><polygon class="cls-80" points="232.96 310.58 236 318.52 243.89 324.31 242.28 353.7 249.68 346.85 247.9 341.76 247.26 323.32 252.96 312.65 250.28 312.79 245.25 320.87 239.46 317.87 236.66 312.52 232.96 310.58"/><polygon class="cls-67" points="212.61 300.14 234.45 306.39 255.42 303.27 272.55 286.58 277.89 292.82 253.31 313.04 238.64 313.82 212.61 300.14"/><polygon class="cls-68" points="272.55 286.58 268.16 253.02 238.7 249.53 269.1 248.22 282.76 260.24 277.89 292.82 272.55 286.58"/><polygon class="cls-70" points="229.71 261.94 242.9 291.01 264.51 269.28 268.16 253.02 238.7 249.53 229.71 261.94"/><polygon class="cls-81" points="255.42 303.27 264.51 269.28 268.16 253.02 272.55 286.58 255.42 303.27"/><polygon class="cls-82" points="242.9 291.01 212.61 300.14 234.45 306.39 255.42 303.27 264.51 269.28 242.9 291.01"/><polygon class="cls-69" points="212.61 300.14 207 280.12 229.71 261.94 216.02 259.45 200.66 278.29 212.61 300.14"/><polygon class="cls-81" points="234.45 306.39 238.64 313.82 212.61 300.14 234.45 306.39"/><polygon class="cls-68" points="207 280.12 212.61 300.14 242.9 291.01 229.71 261.94 207 280.12"/><polygon class="cls-83" points="243.89 324.31 247.9 341.76 247.26 323.32 252.73 313.07 250.01 313.22 245.25 320.87 239.46 317.87 236.85 312.88 232.96 310.84 243.89 324.31"/><polygon class="cls-55" points="234.39 314.32 238.03 315.26 236.85 312.88 232.96 310.84 234.39 314.32"/><polygon class="cls-55" points="250.01 313.22 252.73 313.07 251.25 315.84 248.38 315.84 250.01 313.22"/><path class="cls-84" d="M269.1,248.22l-30.4,1.31-9,12.41L216,259.45l-15.36,18.84,12,21.85,20.48,10.76c-.13-.06,1.3,3.42,1.3,3.42l1.61,4.2,7.89,5.79-1.61,29.39,7.4-6.85-1.78-5.09-.64-18.44,5.47-10.25.58,0,24.58-20.22,4.87-32.58Zm-20.57,67.39c-.15.23-3.28,5.26-3.28,5.26l-5.79-3-2.61-5,1.79.94,11.37-.6Z"/><polygon class="cls-24" points="141.46 424.96 131.68 461.78 195.21 453.45 141.46 424.96"/><polygon class="cls-85" points="141.46 424.96 79.02 453.45 131.68 461.78 195.21 453.45 141.46 424.96"/></g></g></g></svg>