<svg xmlns="http://www.w3.org/2000/svg" xmlns:xlink="http://www.w3.org/1999/xlink" viewBox="0 0 659.84 363.47"><defs><style>.cls-1{fill:#75d6f7;}.cls-2{fill:#5bc6e6;}.cls-3{fill:#43a0c9;}.cls-4{fill:#c1f7f9;}.cls-5{fill:#63c8f2;}.cls-12,.cls-13,.cls-14,.cls-6,.cls-7,.cls-9{opacity:0.51;}.cls-6{fill:url(#linear-gradient);}.cls-7{fill:url(#linear-gradient-2);}.cls-8{fill:#c6fcfc;}.cls-9{fill:url(#linear-gradient-3);}.cls-10{fill:#aef0fc;}.cls-11{fill:#8ae4fc;}.cls-12{fill:url(#linear-gradient-4);}.cls-13{fill:url(#linear-gradient-5);}.cls-14{fill:url(#linear-gradient-6);}.cls-15{fill:url(#linear-gradient-7);}.cls-16{fill:#6cd3ef;}.cls-17{fill:#dcfafa;}.cls-18{fill:#aff1fd;}.cls-19{fill:#cdf9f9;}.cls-20{fill:#c5f8f9;}.cls-21{fill:#e8f7fa;}.cls-22{fill:#eff6f9;}.cls-23{fill:#c0e5f7;}.cls-24{fill:#dcf1f4;}.cls-25{fill:#a8dcf2;}.cls-26{fill:#479aa0;}.cls-27{fill:#85c7d3;}.cls-28{fill:#d6fafa;}</style><linearGradient id="linear-gradient" x1="463.26" y1="251.23" x2="502.04" y2="251.23" gradientUnits="userSpaceOnUse"><stop offset="0" stop-color="#acf2fe"/><stop offset="0.06" stop-color="#a3ebf9"/><stop offset="0.51" stop-color="#64bad7"/><stop offset="0.83" stop-color="#3c9cc2"/><stop offset="1" stop-color="#2d90ba"/></linearGradient><linearGradient id="linear-gradient-2" x1="557.92" y1="248.21" x2="601.67" y2="248.21" xlink:href="#linear-gradient"/><linearGradient id="linear-gradient-3" x1="47.74" y1="235.89" x2="90.84" y2="235.89" xlink:href="#linear-gradient"/><linearGradient id="linear-gradient-4" x1="362.9" y1="296.58" x2="402.3" y2="296.58" gradientUnits="userSpaceOnUse"><stop offset="0" stop-color="#5ac5e5"/><stop offset="1" stop-color="#258fc1"/></linearGradient><linearGradient id="linear-gradient-5" x1="255.97" y1="301.93" x2="302.75" y2="301.93" xlink:href="#linear-gradient-4"/><linearGradient id="linear-gradient-6" x1="171.69" y1="300.76" x2="208.27" y2="300.76" xlink:href="#linear-gradient-4"/><linearGradient id="linear-gradient-7" x1="328.96" y1="116.29" x2="331.22" y2="263.38" gradientUnits="userSpaceOnUse"><stop offset="0" stop-color="#63c8f2"/><stop offset="1" stop-color="#b7f5f2"/></linearGradient></defs><g id="Layer_2" data-name="Layer 2"><g id="_Layer_" data-name="&lt;Layer&gt;"><path class="cls-1" d="M341.41,155.1l-2.32.49-22.93,4.85-3.91.82-5.54,1.18-10.15,2.15-7.39,1.55L276,168.93l-1.41-6.61-1.29-6-.14-.63-.94-4.39s.24-2,.64-5.3c.07-.45.13-.92.19-1.41l0-.19,0-.23c.56-4.42,1.37-10.5,2.31-17l.09-.56c.25-1.78.52-3.59.81-5.41.89-5.84,1.88-11.77,2.91-17,1.43-7.33,2.93-13.3,4.33-15.75,4.81-8.43,21.19-30.73,27-35.9.25-.22.49-.42.7-.58,2.45-1.83,8.18-2.78,13.42-3.26,5.51-.51,10.49-.51,10.49-.51l2,36.18.51,9.11.69,11.2,1.41,23,1.08,17.8Z"/><path class="cls-1" d="M275.89,169.1l-3.81-17.77s.23-2,.64-5.33c0-.29.08-.59.12-.91l.09-.69c.53-4.22,1.35-10.42,2.34-17.28l.08-.56c.27-1.89.55-3.71.81-5.41,1-6.55,2-12.27,2.91-17,1.61-8.24,3.07-13.55,4.35-15.79,5-8.74,21.43-31,27-35.94.27-.24.5-.44.7-.59,2.07-1.55,6.61-2.65,13.49-3.29,5.46-.5,10.46-.51,10.51-.51s2.65,45.43,2.65,45.43l3.79,61.76Zm-3.52-17.79,3.74,17.45L341.26,155l-3.77-61.51L335,48.32c-.85,0-5.4,0-10.34.5-6.74.62-11.35,1.74-13.34,3.24a8.14,8.14,0,0,0-.69.57c-5.56,5-22,27.14-26.94,35.86-1.27,2.21-2.72,7.49-4.32,15.7-.93,4.74-1.91,10.46-2.91,17-.26,1.7-.54,3.52-.81,5.41l-.09.56c-1,6.86-1.8,13.06-2.31,17.05,0,.22-.11.92-.11.92,0,.32-.08.62-.12.91C272.63,149.13,272.4,151.08,272.37,151.31Z"/><path class="cls-2" d="M341.41,155.1l-29.16,6.16-5.54,1.18,5.77-72.76-1.26-6.29,13.42-34.71c5.51-.51,10.49-.51,10.49-.51l2,36.18.51,9.11Z"/><path class="cls-2" d="M306.54,162.62l0-.19,5.77-72.74-1.26-6.31s13.46-34.84,13.46-34.84c5.55-.51,10.55-.52,10.6-.52s2.65,45.43,2.65,45.43l3.79,61.76Zm4.83-79.22,1.26,6.27s-5.76,72.58-5.76,72.58L341.26,155l-3.77-61.51L335,48.32c-.84,0-5.34,0-10.25.49Z"/><path class="cls-3" d="M341.41,155.1l-29.16,6.16c.55-6.15,1.9-20.14,3.53-28.47,2.13-10.91,16.84-28,16.84-28l2.84-15.17,1.67-5.29.51,9.11Z"/><path class="cls-3" d="M312.09,161.45l0-.2c.51-5.76,1.88-20.07,3.53-28.48,2.07-10.61,16.14-27.21,16.84-28l2.84-15.13,1.91-6.08.55,9.91,3.79,61.76ZM337,85.16l-1.43,4.53-2.85,15.19c-.17.2-14.72,17.19-16.83,27.94-1.62,8.31-3,22.38-3.5,28.26l28.84-6.1-3.77-61.51Z"/><path class="cls-4" d="M334.84,48.05c-2.52,1.28-11.32,20.49-11.32,20.49L312.2,90.32,283.26,89c4.82-8.59,21.19-31.3,27-36.55l.7-.6c2.44-1.87,8.17-2.83,13.41-3.32C329.87,48.05,334.84,48.05,334.84,48.05Z"/><path class="cls-4" d="M312.28,90.47,283,89.18l.12-.22c5-8.9,21.42-31.52,27-36.59l.7-.59c2.07-1.58,6.61-2.71,13.49-3.36,5.47-.52,10.46-.52,10.51-.52h.62l-.55.28c-2.45,1.24-11.17,20.23-11.26,20.42ZM283.51,88.9l28.6,1.26,11.28-21.69c.34-.74,8.08-17.59,11-20.27-1.35,0-5.53.09-10,.51C317.63,49.35,313,50.49,311,52l-.7.59C304.82,57.61,288.63,79.87,283.51,88.9Z"/><path class="cls-5" d="M659.26,191.12l-.7,3.22-18.94,87.47-3.52,16.26c-4.73,1-10.28,1.89-16.48,2.6-6.81.8-14.4,1.41-22.52,1.91-.84.06-1.69.1-2.55.15l-4.75.26-2.71.14c-3.32.16-6.72.32-10.18.45-6.19.26-12.54.48-19,.69l-2.93.09c-2.74.08-5.48.17-8.24.24l-18.83.6-1.38,0-3.35.13c-6.4.23-12.72.47-18.88.76-3.28.15-6.51.3-9.68.49l-.64,0-6.12.38c-6.45.41-12.59.9-18.32,1.51-1.66.17-3.29.35-4.88.55l-.67.08c-1,.12-1.95.27-2.91.42-1.28.22-2.53.44-3.76.72a81,81,0,0,0-15.48,5l-.29.13c-1.15.51-2.26,1-3.34,1.53a97.2,97.2,0,0,0-9.54,5.34c-1.8,1.13-3.41,2.22-4.81,3.23-.37.26-.71.5-1,.76a71.39,71.39,0,0,0-5.81,4.71l-1.09-95.58-.46-40,12-.21,40.25-.72,34.36-.59,57.27-1,42.36-.75,21.79-.38,11.52-.21,14.22-.25,4.48-.09Z"/><path class="cls-5" d="M416.75,331.71v-.65l-1.56-135.9,12.25-.22,232.18-4.11-.77,3.57L636.33,298.31l-.18,0c-4.58,1-10,1.85-16.5,2.6-6.33.74-13.7,1.37-22.53,1.91-.75.06-1.51.1-2.28.14l-.27,0c-1.57.09-3.16.18-4.76.25l-2.71.14c-3.19.16-6.52.31-10.18.46-6,.25-12.17.46-19,.68l-2.93.09-4.06.12-4.18.13-3.41.11-15.43.48-1.37,0-1.65.06-1.7.06c-7.66.27-13.48.51-18.88.76-3.37.16-6.51.31-9.67.49L494,307c-2.07.12-4.11.24-6.12.38-6.93.44-12.92.93-18.31,1.5-1.76.18-3.36.36-4.87.55l-.61.07c-1,.12-1.88.26-3,.43-1.47.25-2.66.48-3.75.72a80.93,80.93,0,0,0-15.43,5,1.69,1.69,0,0,1-.31.13l-.35.16c-1,.46-2,.91-3,1.37a98.59,98.59,0,0,0-9.51,5.32c-1.63,1-3.25,2.11-4.8,3.22-.36.26-.7.5-1,.76a67.3,67.3,0,0,0-5.78,4.69Zm-1-136,1.54,134.71c.82-.72,2.67-2.31,5.36-4.3.33-.25.67-.5,1-.76,1.56-1.12,3.19-2.21,4.83-3.24a93.47,93.47,0,0,1,9.57-5.35c1-.46,1.95-.91,3-1.37l.38-.17.28-.12A82,82,0,0,1,457.27,310c1.09-.24,2.29-.47,3.78-.72,1.08-.17,2-.31,2.92-.43.27,0,.47-.06.69-.07,1.49-.19,3.09-.37,4.86-.55,5.4-.57,11.39-1.07,18.33-1.51,2-.14,4-.26,6.13-.38l.63-.05c3.17-.18,6.31-.33,9.65-.48,5.43-.26,11.26-.49,18.92-.77l1.7-.06,1.65-.06,1.38,0,15.42-.49,3.41-.11,4.18-.12c1.36,0,2.71-.09,4.07-.12l2.92-.09c6.82-.23,13-.44,19-.69,3.65-.14,7-.3,10.17-.46l2.62-.13c1.69-.08,3.28-.17,4.85-.26l.28,0c.75,0,1.51-.08,2.26-.14,8.82-.54,16.18-1.16,22.51-1.9s11.79-1.59,16.26-2.56l23-106.42-57.22,1Z"/><path class="cls-6" d="M502,193.91,494,306.66l-6.12.38c-6.45.41-12.59.9-18.32,1.51l-6.29-68.42,4.42-45.63Z"/><path class="cls-7" d="M601.67,192.14l-7.36,46-7.22,65c-3.32.16-6.72.32-10.18.45-6.19.26-12.54.48-19,.69l2.87-64.14-1.48-47.24Z"/><path class="cls-8" d="M429.72,227.48l196-3.46-7.26,14.32L603.88,299l-1.42-54L588.54,225.8l-11.86,19.48-8.28-18.44-16.73,16.3,4.56,46.68L541.92,236l-23.38-1.35-12.84,4.18-7.52,48.43-1.34-46.72-21-3.78-8.66,18.62-4.92-8s-8.55,28.3-8.52,30.72-10-31.32-10-31.32-12.25-14.35-16.29-15.11Z"/><path class="cls-8" d="M603.65,301.1l-1.47-56-13.62-18.76-11.92,19.57-8.33-18.56L552,243.25l4.54,46.54-.56.1L541.7,236.27l-23.12-1.33L506,239.05l-7.49,48.25-.56,0-1.33-46.49L476,237.07,467.24,256l-4.87-7.91c-3,9.93-8.35,28.18-8.32,30,0,.32-.17.39-.27.4-.38.05-.61.12-5.54-15.88-2.29-7.43-4.54-15-4.76-15.7-.76-.89-12.3-14.26-16.09-15l-.38-.08,2.54-4.68,196.66-3.46-7.46,14.74Zm-15.13-75.81,14.23,19.58c0,.09,1.36,51.92,1.36,51.92l14.11-58.51,7.06-14-195.39,3.45-2,3.73c4.39,1.45,15.59,14.54,16.08,15.11,3.33,11.06,8.23,27.08,9.63,30.7.95-5.23,8.11-28.92,8.43-30l.18-.61,5,8.09,8.53-18.34.21,0,21.21,3.82,1.26,43.85,7.06-45.53.17-.06,12.9-4.19,23.63,1.35.06.2,13.41,50.45L551.38,243l17.12-16.68,8.22,18.32Z"/><polygon class="cls-8" points="622.28 215.68 637.74 215.43 630.9 239.59 627.14 218.66 622.28 215.68"/><path class="cls-8" d="M630.84,240.85l-4-22-5.58-3.43,16.82-.27Zm-7.58-24.91,4.13,2.55L631,238.32l6.4-22.6Z"/><path class="cls-3" d="M438.05,313.34l3.51,2.15c-1.15.51-2.26,1-3.34,1.53a97.2,97.2,0,0,0-9.54,5.34l.84-27.71Z"/><path class="cls-3" d="M428.38,322.89l0-.54.87-28.92,9,19.71,3.88,2.38-.86.39c-1,.46-2,.91-3,1.37a98.59,98.59,0,0,0-9.51,5.32Zm1.38-27L429,321.83a95.29,95.29,0,0,1,9.12-5.06c.93-.45,1.88-.88,2.85-1.32l-3.12-1.92C437.8,313.45,429.76,295.88,429.76,295.88Z"/><path class="cls-3" d="M463.18,301l1.49,8.12-.67.08c-1,.12-1.95.27-2.91.42Z"/><path class="cls-3" d="M460.72,310l2.5-10.34,1.79,9.76-.32,0a5.9,5.9,0,0,0-.59.06c-1,.12-1.88.26-3,.43Zm2.42-7.61-1.67,6.91c.9-.14,1.69-.26,2.5-.36l.37,0Z"/><path class="cls-3" d="M501.81,302.79l2.5,3.34c-3.28.15-6.51.3-9.68.49-2.28.13-4.54.27-6.76.42l11.84-53Z"/><path class="cls-3" d="M487.51,307.35l.08-.37,12.31-55.05,2.19,50.76,2.77,3.7-.54,0c-3.37.16-6.51.31-9.67.49-2.39.15-4.59.28-6.76.43Zm12-51.1-11.29,50.48c2-.14,4.12-.26,6.22-.39,3.17-.18,6.16-.32,9.31-.47l-2.23-3C501.53,302.8,499.52,256.25,499.52,256.25Z"/><path class="cls-3" d="M525.08,302.14l1.46,3.1-3.35.13Z"/><path class="cls-3" d="M522.68,305.67l2.43-4.14,1.87,4-.42,0-1.66.06-1.7.06Zm2.38-2.93-1.36,2.32,1.18,0,1.23,0Z"/><path class="cls-3" d="M542.86,261.6,555,304.36c-2.74.08-5.48.17-8.24.24l.93-.92Z"/><path class="cls-3" d="M546,304.91l1.34-1.34-4.8-41.94.56-.11,12.23,43.11H555l-4.06.12-4.18.13ZM543.54,265,548,303.78l-.52.52,3.46-.1,3.7-.11Z"/><path class="cls-3" d="M595.3,263l1.8,39.55c-.84.06-1.69.1-2.55.15l-4.75.26Z"/><path class="cls-3" d="M589.47,303.29,595,263l.57,0,1.81,39.82-.28,0c-.75.06-1.51.1-2.28.14l-.27,0c-1.57.09-3.16.18-4.76.25Zm5.69-37.14-5,36.54c1.48-.07,3-.16,4.41-.24l.28,0c.66,0,1.33-.07,2-.12Z"/><path class="cls-3" d="M639.62,281.81l-3.52,16.26c-4.73,1-10.28,1.89-16.48,2.6l4.15-9.32,4.55,7.14s7.29-25.67,7.23-27.87C635.52,269.63,637.47,275.3,639.62,281.81Z"/><path class="cls-3" d="M619.16,301l4.56-10.26,4.5,7.06c2.56-9,7.09-25.52,7-27.18,0-.32.18-.39.26-.4.39-.07.55-.08,4.37,11.49,0,.15-3.56,16.59-3.56,16.59l-.18,0c-4.58,1-10,1.85-16.5,2.6Zm4.65-9.06-3.73,8.38c6.12-.71,11.42-1.56,15.77-2.5l3.47-16c-2.14-6.48-3.13-9.24-3.59-10.37-.84,4.93-6.86,26.15-7.13,27.12l-.18.61Z"/><path class="cls-5" d="M108.19,198.48v99l-13.86-3.81-1.1-.3-5.84-1.6L80.78,290l-7.31-2L53.08,282.4l-.86-.23-19-5.22-2.73-.75s-1-4.15-2.68-10.85C25,254,20.31,235.34,15.6,217c-1.38-5.41-2.77-10.79-4.11-15.95s-2.7-10.3-3.93-14.91C5,176.61,2.86,169,1.52,165L55,181.77l28,8.8.64.22L90.84,193Z"/><path class="cls-5" d="M108.48,297.91l-.36-.1L30.24,276.43c0-.16-1.06-4.31-2.72-11-3-12.21-7.61-30.52-12.19-48.4-1.39-5.41-2.77-10.79-4.12-16-1.63-6.28-2.85-10.87-3.93-14.9-2.77-10.34-4.8-17.44-6-21.12l-.17-.53,107.4,33.75ZM30.71,276l77.2,21.19V198.69L2,165.39c1.24,3.82,3.21,10.76,5.86,20.63,1.08,4,2.3,8.62,3.94,14.91,1.34,5.16,2.72,10.54,4.11,15.95,4.58,17.88,9.15,36.19,12.19,48.4C29.54,271.21,30.51,275.14,30.71,276Z"/><path class="cls-9" d="M90.84,193l-5.5,43.05L80.78,290l-7.31-2L53.08,282.4l-.86-.23-4.48-57.28s3.68-21.47,7.29-43.12l28,8.8.64.22Z"/><path class="cls-10" d="M80,208.86,69.52,226.08l-7.47-16.64L46.94,224.16l4.13,42.15-12.94-48.6L17,216.49,15.6,217c-1.38-5.41-2.77-10.79-4.11-15.95s-2.7-10.3-3.93-14.91Z"/><path class="cls-10" d="M50.79,266.38,37.91,218l-20.85-1.21-1.66.53-.07-.29c-1.39-5.41-2.77-10.79-4.12-16-1.63-6.28-2.85-10.87-3.93-14.9l-.13-.5.49.15L80.43,208.7l-11,18L62,209.93,47.23,224.27l4.12,42ZM17,216.21l21.36,1.23,0,.2,12,45.22-3.8-38.81L62.15,209l7.41,16.52,10-16.45L8,186.52c1,3.91,2.22,8.38,3.8,14.41,1.31,5.07,2.67,10.35,4,15.66Z"/><path class="cls-3" d="M31.47,238.65,33.21,277l-2.73-.75s-1-4.15-2.68-10.85Z"/><path class="cls-3" d="M33.51,277.32l-3.27-.89c0-.16-1.06-4.31-2.72-11,0-.11,3.67-26.81,3.67-26.81l.56,0ZM30.71,276l2.19.6-1.57-34.8-3.25,23.57C29.55,271.24,30.51,275.15,30.71,276Z"/><path class="cls-3" d="M96.19,287.77l-3,5.65-5.84-1.6L73.47,288,53.08,282.4,59.93,267l4.56,7.14s7.28-25.68,7.22-27.87,9.53,28.12,9.53,28.12S92.53,287.14,96.19,287.77Z"/><path class="cls-3" d="M93.38,293.75l-6.06-1.66-34.64-9.5.14-.3,7.07-15.92,4.5,7.06c2.55-9,7.09-25.52,7-27.18,0-.32.18-.39.26-.4.41,0,.88.81,5.27,14.27,2.17,6.65,4.31,13.4,4.53,14.09.74.83,11.33,12.69,14.75,13.28l.38.06ZM53.47,282.21l39.62,10.87L95.77,288c-4-1.3-14.3-12.9-14.75-13.4-3.14-9.86-7.75-24.09-9.12-27.49-.84,4.92-6.86,26.16-7.14,27.13l-.17.61L60,267.56Z"/><path class="cls-5" d="M168.72,324.2c-.38-1.61-.47-2.38-.07-1.78A2.24,2.24,0,0,1,168.72,324.2Z"/><path class="cls-5" d="M168.71,325.38l-.26-1.11c-.46-2-.4-2.19-.13-2.31s.48.17.56.3a2.44,2.44,0,0,1,.12,2Z"/><path class="cls-5" d="M276.32,337.66l9.38,25.52c-8.23,0-16.29-.18-24.17-.53l-2.94-.14Z"/><path class="cls-5" d="M284.78,363.47c-7.55,0-15.17-.18-23.27-.54l-3.46-.16.31-.42,18.05-25.3.18.51,9.51,25.91h-1.32Zm-25.66-1.22,2.42.11c8.27.37,16,.53,23.75.54l-9.05-24.64Z"/><path class="cls-11" d="M426.68,235.06l-.61,14.32-3.15,74.78-.09,2.19-.72,16.9c-1.32.41-2.66.81-4,1.2-3.28,1-6.52,1.89-9.78,2.76-2.21.61-4.44,1.19-6.63,1.74-.28.08-.53.15-.81.21q-14.7,3.7-29.15,6.33l-6,1.05c-.94.17-1.9.32-2.84.46-15.12,2.48-29.95,4.11-44.41,5.09-5.79.39-11.54.68-17.19.85l-2,.06c-4.56.12-9.1.18-13.56.18-8.23,0-16.29-.18-24.17-.53l-2.94-.14c-.89,0-1.76-.09-2.62-.15-.58,0-1.15-.06-1.73-.09-10.77-.64-21.16-1.59-31.11-2.74-4.18-.49-8.26-1-12.29-1.6-1.61-.23-3.2-.46-4.78-.71-9.66-1.43-18.84-3.07-27.45-4.8-.42-.09-.87-.16-1.29-.26-12.48-2.54-23.74-5.28-33.59-8L143,344c-7.25-2-13.71-3.91-19.31-5.7-3.85-1.22-7.3-2.36-10.3-3.4-2.59-.89-4.86-1.72-6.76-2.42-5-1.83-7.58-2.95-7.58-2.95l-4.72-35.82-6-45,12.15-.49,2.44-.1,5.22-.22,3.57-.13.67,0,22.52-.91,7.79-.32,30-1.22,2.89-.12,7.82-.31,15-.61L230.59,243l17.47-.7,13.21-.53,7.72-.32,10.73-.43,8.14-.33,10.1-.41,30.3-1.22,28.68-1.18,7.56-.3,2.62-.11,24-1,8.06-.32,8.9-.37,7.81-.32Z"/><path class="cls-11" d="M284.78,363.47c-7.55,0-15.17-.18-23.27-.54l-2.94-.13-2.62-.16-1.16-.05-.56,0c-10.22-.6-20.69-1.53-31.14-2.74-4.12-.48-8.26-1-12.29-1.6l-4.78-.7c-9-1.34-18-2.91-27.46-4.81l-.65-.13-.65-.13c-11.32-2.3-22.63-5-33.6-7.95l-.37-.1-.36-.1c-6.62-1.81-13.12-3.73-19.32-5.71-3.57-1.12-7-2.27-10.31-3.4-2.19-.76-4.34-1.53-6.77-2.42-4.91-1.81-7.57-2.95-7.59-3-.17-.23-10.88-81.3-10.88-81.3l24.36-1L427,234.76l-.62,14.63-4,94.07-.19.06c-1,.31-2,.61-3,.9l-1,.31c-3.25,1-6.54,1.89-9.79,2.76-2,.55-4.16,1.12-6.63,1.74-.37.1-.58.16-.82.21-9.7,2.44-19.51,4.57-29.16,6.33l-6,1.05c-.94.17-1.91.32-2.85.46-14.34,2.35-29.29,4.07-44.43,5.09-5.87.4-11.66.69-17.2.85-.62,0-1.22,0-1.84.06h-.2C294.39,363.41,289.48,363.46,284.78,363.47ZM99.31,329.34c.62.26,3.18,1.32,7.41,2.88,2.43.9,4.58,1.67,6.76,2.43,3.27,1.12,6.73,2.26,10.3,3.39,6.2,2,12.69,3.89,19.3,5.7l.36.1c.12,0,.24.07.36.09,11,3,22.26,5.65,33.58,8l.64.12.65.14c9.49,1.89,18.46,3.46,27.43,4.79,1.59.25,3.17.47,4.78.7,4,.58,8.16,1.12,12.28,1.6,10.43,1.22,20.9,2.14,31.1,2.74l.56,0,1.15.06,2.63.15,2.94.13c8.09.36,15.7.54,23.24.54,4.71,0,9.6,0,14.47-.19h.21l1.83-.06c5.54-.16,11.32-.45,17.18-.85,15.12-1,30-2.73,44.38-5.08.94-.14,1.9-.29,2.84-.46l6-1.05c9.63-1.75,19.43-3.88,29.13-6.32l.66-.17c2.61-.66,4.78-1.23,6.77-1.78,3.25-.87,6.54-1.79,9.78-2.76l1-.3,2.79-.84,4.55-107.69L88.71,249Z"/><path class="cls-12" d="M402.3,339.7l-.59,9.25c-.28.08-.53.15-.81.21q-14.7,3.7-29.15,6.33l-6,1.05c-.94.17-1.9.32-2.84.46l1.81-50.83V256.39l2.41-18.93,24-1,8.06-.32C400.41,277.1,402.3,339.7,402.3,339.7Z"/><path class="cls-13" d="M302.75,290.94v57.9l-1.45,14.1-2,.06c-4.56.12-9.1.18-13.56.18-8.23,0-16.29-.18-24.17-.53l-2.94-.14c-.89,0-1.76-.09-2.62-.15L263.13,294l-1.86-52.22,7.72-.32,10.73-.43,8.14-.33C294.35,261.63,302.75,289.06,302.75,290.94Z"/><path class="cls-14" d="M208.27,309.22l-2.21,48c-9.66-1.43-18.84-3.07-27.45-4.8l.19-6.62-7.11-59.95,3.92-40.63,7.82-.31,15-.61-2.39,23.26Z"/><path class="cls-5" d="M102.6,307.18l10.79,27.73c-2.59-.89-4.86-1.72-6.76-2.42Z"/><path class="cls-5" d="M113.88,335.39l-.58-.21c-2.19-.76-4.34-1.53-6.77-2.42-.18-.22-4.63-28.16-4.63-28.16Zm-7-3.11c2.15.79,4.08,1.49,6,2.16l-9.6-24.68Z"/><path class="cls-5" d="M168.72,324.2c1.65,6.68,8.6,28,8.6,28-12.48-2.54-23.74-5.28-33.59-8,3.93-21.71,9.68-54.3,9.68-54.3l4.05,50.8S167.41,329.23,168.72,324.2Z"/><path class="cls-5" d="M177.74,352.54l-.48-.1c-11.32-2.3-22.63-5-33.6-7.95l-.25-.07,0-.26c3.89-21.47,9.62-54,9.68-54.29l.39-2.2L157.69,340c1.94-2.29,9.64-11.57,10.76-15.87l.28-1.08.27,1.08c1.63,6.59,8.52,27.73,8.59,27.95ZM144.06,344c10.73,2.91,21.77,5.52,32.84,7.79-1-3-6.41-19.76-8.21-26.58-2.09,5.36-10.63,15.24-11,15.68l-.45.51,0-.67-3.88-48.58C152,299.8,147.36,325.78,144.06,344Z"/><path class="cls-5" d="M243.82,339.7l10.42,22.57c-10.77-.64-21.16-1.59-31.11-2.74-4.18-.49-8.26-1-12.29-1.6l21.81-71.06-6.1,57.9Z"/><path class="cls-5" d="M254.7,362.58l-.47,0c-10.22-.6-20.69-1.53-31.14-2.74-4.12-.48-8.26-1-12.29-1.6l-.33,0,.1-.32,21.81-71.06.55.12-6.05,57.48,17.1-5,.1.22Zm-43.49-4.89c3.92.56,7.94,1.09,11.95,1.55,10.27,1.2,20.57,2.11,30.63,2.72L243.67,340l-17.44,5.13,5.83-55.41Z"/><path class="cls-5" d="M349.47,347.82l16.27,8.72a473,473,0,0,1-47.25,5.55l5.59-85.39,11.17,74.17,10.17-18.29Z"/><path class="cls-5" d="M318.19,362.39l0-.32,5.76-88L335.41,350l10.1-18.17,4.2,15.8,16.9,9.05-.82.14a476,476,0,0,1-47.28,5.55Zm6-83-5.4,82.43c15.61-1.06,31.11-2.87,46.09-5.38L349.23,348c0-.12-3.91-14.68-3.91-14.68l-10.23,18.4Z"/><path class="cls-5" d="M418.12,344.45c-3.28,1-6.52,1.89-9.78,2.76l-1-27.84Z"/><path class="cls-5" d="M408.07,347.58l0-.36-1-29.36,11.47,26.78-.31.09c-3.25,1-6.54,1.89-9.79,2.76Zm-.36-26.7.9,26c3-.81,6.1-1.68,9.12-2.58Z"/><path class="cls-8" d="M139.15,264.31l7.71,1.15-10.48,14.2-4.07-11.13s-17.69,32.83-18.26,35.82-4.51-41.21-4.51-41.21-.8-1.44-2-3.59l5.17.78,3.53.53.66.1Z"/><path class="cls-8" d="M114,304.78c-.41,0-.74,0-2.79-20.95-1-9.81-1.85-19.74-1.93-20.61-.15-.27-.91-1.63-2-3.53l-.3-.51,10,1.5,30.47,4.57-11.08,15-4-11c-2.33,4.33-17.42,32.47-17.93,35.17C114.27,304.71,114.11,304.78,114,304.78ZM108,259.92c1.07,1.84,1.74,3.07,1.75,3.08,1.33,14.76,3.41,36.3,4.21,40.59,2.16-5.68,17.37-33.93,18.06-35.19l.29-.56,4.11,11.23,9.89-13.4Z"/><polygon class="cls-8" points="169.79 262.19 180.51 262.05 169.26 319.99 169.79 262.19"/><path class="cls-8" d="M169.54,320,169,320l.53-58.07,11.35-.15Zm.54-57.57-.51,54.41,10.6-54.54Z"/><polygon class="cls-8" points="251.28 267.25 244.87 273.06 248.37 332.08 233.81 267.49 251.28 267.25"/><path class="cls-8" d="M248.09,332.14l-14.64-64.93L252,267l-6.88,6.22,3.49,58.88Zm-13.93-64.37,13.72,60.84-3.31-55.67,6-5.39Z"/><polygon class="cls-8" points="256.24 287.53 266.97 287.39 260.25 297.51 256.24 287.53"/><path class="cls-8" d="M260.19,298.12l-4.37-10.87,11.69-.16Zm-3.54-10.31,3.67,9.09,6.12-9.22Z"/><polygon class="cls-8" points="306.56 257.41 327.22 256.74 325.64 260.83 310.47 336.65 311.6 268.6 306.56 257.41"/><path class="cls-8" d="M310.75,336.7l-.56-.06,1.13-68-5.19-11.51,21.51-.7-1.73,4.49Zm-3.75-79,4.88,10.92-1.07,64.92,14.55-72.74L326.8,257Z"/><polygon class="cls-8" points="357.2 280.97 364.76 280.87 359.43 298.53 357.2 280.97"/><path class="cls-8" d="M359.31,299.89l-2.43-19.2,8.26-.11L365,281Zm-1.79-18.64,2,15.92,4.84-16Z"/><polygon class="cls-8" points="412.23 269.6 409.69 299.27 399.21 272.57 395.26 269.83 412.23 269.6"/><path class="cls-8" d="M409.87,300.51,399,272.76l-4.61-3.2,18.17-.25ZM396.15,270.1l3.29,2.29L409.51,298l2.41-28.15Z"/><path class="cls-15" d="M.5,171.05c13.49,48.24,92,33.53,101.06,45.72s-24.13,19.81-13.57,32C98.28,260.66,201.76,298.61,381.65,285c12-.92,32.07-6.94,39.68-16.4,5.26-6.54,8.14-19.58,0-24.38,0,0-3.17-1.91,30.17,0,79.94,4.57,108.6,3.05,164.41-16.76s63.35-53.34-6-77.72C542.49,126-19.11,101,.5,171.05Z"/><path class="cls-5" d="M150.08,175.75c0-2.51,9.66-43.44,9.66-43.44l-49.16,10.21-2.51,18.81,10.65,21.24Z"/><path class="cls-5" d="M118.57,182.89l-.1-.2-10.69-21.32,2.54-19.09,49.8-10.34-.1.44c-.1.4-9.66,40.92-9.66,43.37V176Zm-10.2-21.61,10.51,21,30.93-6.73c.39-3.89,8.49-38.31,9.55-42.83l-48.53,10.07Z"/><polygon class="cls-16" points="39.73 124.96 44.12 153.8 57.91 175.75 118.57 182.49 108.07 161.33 111.21 139.38 95.53 153.18 39.73 124.96"/><path class="cls-16" d="M119.06,182.83,57.74,176l-13.9-22.16-4.47-29.39.49.25,55.63,28.12,16.11-14.17-3.23,22.62Zm-61-7.35,60,6.67-10.31-20.78c0-.08,3-21.27,3-21.27L95.58,153.52l-.18-.09-55.31-28,4.3,28.24Z"/><polygon class="cls-11" points="54.78 142.52 52.27 155.06 58.19 175.6 66.69 175.75 95.53 153.18 54.78 142.52"/><path class="cls-11" d="M66.78,176,58,175.88l-.06-.2L52,155.07c0-.07,2.58-12.91,2.58-12.91l.29.08L96.16,153l-.45.36Zm-8.38-.7,8.19.13L94.91,153.3,55,142.87,52.56,155Z"/><polygon class="cls-2" points="95.53 153.18 96.79 169.48 118.1 182.02 108.07 161.33 108.7 140.01 95.53 153.18"/><path class="cls-2" d="M118.77,182.74,96.52,169.65c0-.15-1.28-16.58-1.28-16.58L109,139.3l-.64,22ZM97.06,169.31l20.38,12-9.65-19.91c0-.07.6-20.68.6-20.68L95.82,153.28Z"/><polygon class="cls-11" points="158.86 132.48 123.12 146.28 118.1 160.7 118.44 181.57 108.07 161.33 108.92 144.06 158.86 132.48"/><path class="cls-11" d="M118.74,182.79l-11-21.4c0-.08.86-17.56.86-17.56l.21-.05,50-11.57.16.54L123.34,146.5l-5,14.24Zm-10.38-21.53,9.77,19.1-.31-19.71,5.08-14.59L155,133.67l-45.8,10.62Z"/><path class="cls-4" d="M159.64,132.17l-48.75,10.28-.31.07-.19.13-.19.14L95.54,153.17,54.77,142.52,39.33,124.64s20.47-19.11,26.11-19.11a29.5,29.5,0,0,1,3.42.41c15.15,2.44,70.56,14.63,70.56,14.63Z"/><path class="cls-4" d="M95.59,153.48l-41-10.71L38.94,124.62l.2-.19c.84-.78,20.61-19.19,26.3-19.19a29,29,0,0,1,3.47.42c15,2.41,70,14.51,70.57,14.64.08,0,21,12,21,12l-.73.16-49,10.33-.34.24ZM54.93,142.26l40.55,10.6,15-10.62.31-.07,48-10.12-19.54-11.21c-1.8-.4-55.7-12.24-70.49-14.62a27.51,27.51,0,0,0-3.38-.41c-5.17,0-23.58,16.88-25.71,18.85Z"/><path class="cls-17" d="M63.87,106.78c-2.51,1.25-9.09,20.06-9.09,20.06l6.27,13.79,34.48,12.54L54.78,142.52,40.51,125Z"/><path class="cls-17" d="M95.46,153.45,54.61,142.77c0-.08-14.5-17.86-14.5-17.86l.23-.17,23-17.89a1.9,1.9,0,0,1,.43-.33l.3.48-.43.34c-2.17,2.26-6.79,14.52-8.53,19.49l6.18,13.58,34.37,12.5ZM54.94,142.26l34.75,9.09L60.84,140.86l-6.37-14c.6-1.7,4.77-13.52,7.65-18.35L40.92,125Z"/><path class="cls-17" d="M109.13,143.63l24.81-10.36-4.4-8.15s-64.1-18-63.95-18.81l2.51-.16c15.15,2.44,71.32,14.42,71.32,14.42l20.51,11.84Z"/><path class="cls-17" d="M109.19,143.91l-.17-.54,24.52-10.24-4.19-7.77c-1.48-.42-16.8-4.73-31.92-9.08-32.26-9.28-32.2-9.61-32.12-10l0-.21,2.73-.17c15,2.41,70.84,14.31,71.4,14.43.08,0,21.23,12.22,21.23,12.22ZM66.73,106.52c6.75,2.41,46.83,13.81,62.89,18.32.12,0,4.72,8.57,4.72,8.57l-22.16,9.26,47-10.38-19.83-11.45c-1.85-.39-56.47-12-71.26-14.41Z"/><path class="cls-11" d="M605.24,161.91l-130.37.9-35.08.24c-.12,0-2,0-2,0l-124.15.87-2.47-3.22-17.84-23.19,69.07-101.6,3,.64L376.66,39,399,52.19l.33-.24L469.87,2.28l1.27-.88,48.76,2L588,71.5Z"/><path class="cls-11" d="M313.52,164.22,311,160.89l-18-23.35L362.3,35.61l14.5,3.12L399,51.85l.19-.13L471.05,1.11l49,2,68.2,68.21c0,.08,17.36,90.83,17.36,90.83h-.34Zm-19.82-26.7,20.1,26.13,291.09-2-17.2-90L519.78,3.71l-48.56-2L470,2.52l-71,50-.16-.1-22.3-13.18-14-3Z"/><polygon class="cls-1" points="438.7 163.07 345.13 163.73 313.66 163.94 311.19 160.73 326.88 135.51 361.42 66.41 398 81.65 438.45 162.6 438.7 163.07"/><path class="cls-1" d="M313.52,164.23l-2.67-3.49.1-.16,15.68-25.22,34.66-69.31.24.1L398.2,81.43l41,81.92Zm-2-3.52,2.26,2.95,124.43-.87L397.79,81.87,361.56,66.78l-34.43,68.85Z"/><polygon class="cls-18" points="365.48 36.96 362.48 66.66 329.44 140.03 312.96 164.52 292.37 137.99 362.39 35.94 365.43 36.58 365.48 36.96"/><path class="cls-18" d="M313,165l-.24-.32L292,138l.12-.17L362.26,35.62l3.43.72.07.62s-3,29.81-3,29.81l-33,73.38Zm-20.26-27L313,164l16.26-24.17,33-73.29,3-29.62a18.34,18.34,0,0,0-2.68-.71Z"/><polygon class="cls-2" points="469.1 93.84 444.72 138.55 442.69 162.93 429.48 160.9 398 81.65 411.2 78.61 469.1 93.84"/><path class="cls-2" d="M443,163.26l-13.67-2.11-31.67-79.7,13.59-3.13,58.32,15.34-.17.32L445,138.63Zm-13.26-2.62,12.74,2,2-24.19L468.68,94,411.19,78.9l-12.81,3Z"/><polygon class="cls-18" points="514.82 50.17 469.1 93.84 397.92 82.86 399.06 50.86 469.35 0.38 514.82 50.17"/><path class="cls-18" d="M469.19,94.14l-71.56-11,1.15-32.39L469.39,0l.17.19,45.65,50-.2.19Zm-71-11.52L469,93.54l45.42-43.38L469.31.76,399.34,51Z"/><path class="cls-19" d="M586.31,69.91s-68.45-19.74-71.49-19.74S470,.53,470,.53l49.9,2.9Z"/><path class="cls-19" d="M587.29,70.48l-1.06-.3c-.68-.2-68.44-19.73-71.42-19.73S474.07,5.81,469.79.71l-.43-.5L520,3.15ZM470.65.85c16.75,19.9,42,49,44.16,49,2.88,0,61.54,16.86,70.52,19.45L519.78,3.71Z"/><polygon class="cls-19" points="398.87 51.05 398.29 83.33 362.49 66.67 362.43 35.94 376.66 38.98 398.87 51.05"/><path class="cls-19" d="M398.56,83.77,362.21,66.85v-.18l-.07-31.09,14.66,3.15,22.36,12.15v.17ZM362.78,66.49,398,82.89l.58-31.67-22-12-13.85-3Z"/><polygon class="cls-19" points="405.1 53.21 467.07 9.53 504.66 49.15 465.04 21.72 405.1 53.21"/><path class="cls-19" d="M405.23,53.46l-.29-.48L467.11,9.15l.17.18L506.76,51,465,22.05ZM467,9.9l-58.2,41,56.23-29.54.14.09,37.36,25.87Z"/><polygon class="cls-19" points="478.25 95.88 516.85 58.29 551.39 71.5 517.87 66.42 478.25 95.88"/><path class="cls-19" d="M478.42,96.11l-.37-.43L516.78,58,554,72.17l-36-5.45Zm38.5-37.49L481.51,93.1l36.28-27,31,4.7Z"/><path class="cls-5" d="M605.24,161.91,469.61,188.32l-29.82-25.27c-.15-.12,6.07-24.25,6.07-24.25l31.37,14,62-35.56,30.48-2,18.55-41.39Z"/><path class="cls-5" d="M469.53,188.63,439.31,163l.05-.18,6.31-24.46,31.55,14,61.95-35.52,30.31-2,18.85-42.06.17.88,17.07,88.41-.28.06ZM440,162.82,469.69,188,604.9,161.69l-16.79-87-18.25,40.72-30.58,2-62,35.59-31.2-13.89Z"/><polygon class="cls-11" points="398.38 83.52 369.93 102.36 368.91 142.99 429.86 161.28 398.38 83.52"/><path class="cls-11" d="M430.35,161.72l-.57-.17L368.62,143.2V143l1-40.79,28.87-19.11.13.32ZM369.2,142.78l60.18,18.06L398.25,84l-28,18.56Z"/><path class="cls-5" d="M438.7,163.07l-93.57.66c10.9-9.39,23.39-21.12,23.39-21.12l69.93,20Z"/><path class="cls-5" d="M344.36,164l.59-.51c10.76-9.27,23.25-21,23.38-21.11s70.32,20,70.32,20l.51,1Zm24.24-21.1c-1.27,1.2-12.62,11.81-22.7,20.52l92.19-.65Z"/><polygon class="cls-3" points="540.78 117.14 548.35 166.99 569.17 114.67 540.78 117.14"/><path class="cls-3" d="M548.22,168.07l-7.76-51.18,29.14-2.54-.17.43Zm-7.11-50.67,7.36,48.51L568.73,115Z"/><polygon class="cls-3" points="477.23 152.25 474.79 162.44 469.29 188.4 439.03 163.38 444.92 138.52 477.23 152.25"/><path class="cls-3" d="M469.48,188.92l-.37-.3L438.7,163.49l0-.17,6-25.21.31.14,32.54,13.83-2.49,10.43Zm-30.13-25.64,29.76,24.58,5.4-25.48,2.38-10-31.76-13.5Z"/><path class="cls-5" d="M448,141.08c.76.51,26.16,14,26.16,14l-4.83,24.13,1.78-23.37Z"/><path class="cls-5" d="M469.63,179.24l-.56-.08,1.77-23.2-23-14.63a4.85,4.85,0,0,1,.29-.49c1,.59,17.46,9.36,26.14,14l.19.1,0,.21Zm-14.8-34.15,16.6,10.58c0,.16-1.44,18.87-1.44,18.87l3.87-19.34C472.23,154.34,462,148.9,454.83,145.09Z"/><path class="cls-20" d="M488,187.3s-71.12,5.09-73.15,5.59-46.23-2-47.76-2-20.81-11.69-20.81-11.69l49.77-27.93,6.59,3.94,27.45,16.37,24.88-.5Z"/><path class="cls-20" d="M413.32,193.24c-5.28,0-21.91-.84-37.55-1.66-4.79-.25-8.25-.43-8.65-.43-1.56,0-19-10.53-21-11.73l-.42-.25.42-.24,49.92-28,6.74,4,27.37,16.33,24.88-.51,34,16.74-1,.08c-.72,0-71.12,5.09-73.1,5.58A10.23,10.23,0,0,1,413.32,193.24Zm-66.45-14.05c7.46,4.51,19.22,11.39,20.25,11.39.41,0,3.7.17,8.68.43,12.19.64,37.56,2,39,1.61,1.92-.48,63-4.87,72.15-5.53l-32-15.75-24.9.51-34-20.27Z"/><path class="cls-21" d="M402.64,155.12l27.45,16.36s-14.74,8-15.88,8.76-13.72-16-13.72-16l-4.1-12.79Z"/><path class="cls-21" d="M414.12,180.57c-.51,0-1.9-1-7.42-7.86-3.25-4.05-6.4-8.25-6.44-8.3s-4.36-13.58-4.36-13.58l6.89,4,27.87,16.62-.44.24c-.15.08-14.74,8-15.86,8.75A.4.4,0,0,1,414.12,180.57Zm-13.37-16.46c5.73,7.65,12.36,15.8,13.37,15.87,1-.67,12.89-7.15,15.39-8.51l-27-16.11-5.6-3.29Z"/><path class="cls-22" d="M384.31,185.83a132,132,0,0,1-.93,15.73A146.88,146.88,0,0,1,355,211.65a302,302,0,0,1-43.81,7.45l-4.71.47-.29,0c-13.27,1.22-28.28,2-45.23,2.21l-4.61,0c-17.59.08-33.55-.64-48-2-.31,0-.61,0-.92-.07-2.45-.23-4.84-.48-7.2-.75a.68.68,0,0,1-.2,0l-1.17-.13a334.28,334.28,0,0,1-44.44-8c-2.59-.67-5.08-1.34-7.51-2.06A220.05,220.05,0,0,1,123,200.62a132.49,132.49,0,0,1-.81-13.44c0-.45,0-.9,0-1.35a130.92,130.92,0,0,1,3.28-29.22c0-.16.06-.28.09-.42a129.19,129.19,0,0,1,13-33.72,1.58,1.58,0,0,1,.13-.26A131.58,131.58,0,0,1,210.05,62l1.86-.62A127,127,0,0,1,231,56.61l1-.17,1.72-.26.82-.12c1.41-.2,2.82-.38,4.24-.53.4-.06.72-.09,1-.12,3.58-.37,7.24-.58,10.89-.66h3.37c1.34,0,2.67,0,4,.06L261,55c1.44.08,2.85.18,4.26.3l.83.08c.89.09,1.79.18,2.67.3.46,0,.91.1,1.37.16,1.13.15,2.26.3,3.37.47s2,.32,3,.5c.7.12,1.4.26,2.08.4l1,.18c2.87.6,5.72,1.28,8.52,2.06.52.14,1,.27,1.51.43,2.46.71,4.86,1.47,7.24,2.33.53.18,1.07.36,1.6.56A131.41,131.41,0,0,1,369,124.39a.62.62,0,0,1,.1.2A130.33,130.33,0,0,1,384.31,185.83Z"/><path class="cls-22" d="M253.77,222.13c-16,0-31.25-.67-45.47-2-.3,0-.61,0-.91-.07-2.63-.25-5-.49-7.22-.75a.68.68,0,0,1-.23,0l-1.14-.13a335.59,335.59,0,0,1-44.47-8c-2.9-.75-5.28-1.4-7.49-2.05a.5.5,0,0,1-.19,0,224.88,224.88,0,0,1-23.81-8.22,104.59,104.59,0,0,1-1-13.7c0-.44,0-.9,0-1.35a131.64,131.64,0,0,1,3.28-29.29l.09-.41a129.53,129.53,0,0,1,13-33.8l.08-.17A131.48,131.48,0,0,1,210,61.74c.61-.22,1.24-.43,1.86-.63a128.44,128.44,0,0,1,19.09-4.78c.36,0,.69-.11,1-.17l1.73-.26.83-.12c1.55-.22,2.94-.4,4.24-.54l1-.11c3.56-.36,7.23-.58,11-.66h.81c.85,0,1.72,0,2.58,0,1.28,0,2.55,0,3.82.05h.18c1,0,1.95.1,2.93.16,1.31.07,2.7.18,4.26.31l.4,0,.45,0,.2,0c.82.08,1.65.17,2.47.28.44,0,.9.09,1.36.15,1.14.16,2.27.31,3.38.48l.91.15,2.09.35c.7.12,1.4.26,2.09.4l1,.18c2.88.6,5.74,1.29,8.5,2l1.56.44c2.69.79,5.07,1.56,7.25,2.34l1.6.56a131.72,131.72,0,0,1,70.77,61.78.64.64,0,0,1,.13.26,132,132,0,0,1,14.24,77.07A139,139,0,0,1,355,211.92a305.38,305.38,0,0,1-43.85,7.46l-3.55.36-1.24.12c-13.95,1.29-29.18,2-45.46,2.24l-4.63,0Zm-53.65-3.38c2.34.27,4.7.51,7.32.75l.9.08c15,1.39,31.09,2.06,48,2l4.62,0c16.27-.21,31.48-.95,45.21-2.21l1.44-.14,3.41-.35a304.31,304.31,0,0,0,43.91-7.46,147.58,147.58,0,0,0,28.21-10,131.39,131.39,0,0,0-14.22-76.65.48.48,0,0,0-.08-.16A131.1,131.1,0,0,0,298.32,63c-.53-.2-1.06-.38-1.59-.56-2.17-.78-4.54-1.54-7.23-2.33l-1.45-.42c-2.81-.77-5.67-1.46-8.55-2.06l-1-.18c-.68-.14-1.38-.28-2.08-.4l-2.08-.35-.91-.15c-1.1-.17-2.23-.32-3.36-.47-.46-.06-.9-.12-1.35-.15-.83-.12-1.66-.2-2.47-.29l-.2,0-.43,0-.41,0c-1.55-.14-2.94-.24-4.24-.31-1-.06-2-.12-2.92-.16h-.18c-1.27,0-2.54-.06-3.82-.06h-3.37c-3.72.08-7.38.3-10.86.66l-.94.1c-1.39.16-2.77.33-4.33.55l-.81.12-1.73.26c-.33.06-.67.13-1,.17a128.66,128.66,0,0,0-19,4.76l-1.86.62a130.84,130.84,0,0,0-84.37,94l-.09.39a131.31,131.31,0,0,0-3.27,29.18c0,.44,0,.9,0,1.34,0,4.4.31,8.85.79,13.25a224,224,0,0,0,23.65,8.15c2.31.67,4.7,1.32,7.61,2.07a336.15,336.15,0,0,0,44.4,8c.38,0,.75.09,1.12.11Z"/><path class="cls-23" d="M277.46,57.7c0,1.71-10.13,3.09-22.62,3.09s-22.62-1.38-22.62-3.09,10.13-3.09,22.62-3.09S277.46,56,277.46,57.7Z"/><path class="cls-23" d="M254.84,61.08c-9.21,0-22.9-.9-22.9-3.38s13.69-3.38,22.9-3.38,22.9.9,22.9,3.38S264,61.08,254.84,61.08Zm0-6.19c-13.84,0-22.33,1.64-22.33,2.81s8.49,2.81,22.33,2.81,22.33-1.64,22.33-2.81S268.68,54.89,254.84,54.89Z"/><path class="cls-24" d="M181.35,89.28s-22.87,33.77-22.87,38c0,0,13.53,4.19,20,4.76s22,3.27,22,3.27l7.73-21.74,7.29-19.64Z"/><path class="cls-24" d="M200.66,135.59l-.24-.05c-.15,0-15.57-2.69-22-3.25s-19.93-4.74-20.06-4.78l-.2-.06v-.21c0-4.23,22-36.74,22.92-38.12l.1-.15,34.66,4.68-7.41,20ZM158.78,127c1.76.53,13.8,4.16,19.73,4.68s19.8,2.88,21.77,3.22l7.65-21.51,7.17-19.31-33.61-4.54C173.72,101.06,159.33,123.15,158.78,127Z"/><path class="cls-24" d="M243,65c.27-.09,29,.09,29,.09l3.48,30.38-28.81.11H226.1Z"/><path class="cls-24" d="M246.68,95.91H225.62L242.78,64.8c.39-.12,18.47,0,29.23,0h.25l3.55,30.94Zm-20.09-.57h20.09l28.49-.11-3.41-29.82c-9.48-.06-26.86-.15-28.61-.1Z"/><polygon class="cls-24" points="208.58 136.19 243.95 138.6 245.72 177.15 199.95 173.58 208.58 136.19"/><path class="cls-24" d="M246,177.46l-.33,0-46.1-3.59.08-.32,8.68-37.63,35.87,2.44v.25Zm-45.72-4.14,45.12,3.52-1.75-38-34.88-2.37Z"/><path class="cls-24" d="M286.32,94.64l35.35-2.11s24.05,34.74,24.15,37.46c0,0-30.77,8.48-44.16,6Z"/><path class="cls-24" d="M307.52,136.71a33,33,0,0,1-5.92-.46c-.21-.18-15.68-41.87-15.68-41.87l.39,0,35.5-2.13c1.07,1.56,24.19,35,24.29,37.75v.22l-.22.06C345.63,130.33,322.32,136.71,307.52,136.71Zm-5.65-1c12.62,2.26,40.68-5.15,43.62-5.94-.93-3.25-17.4-27.47-24-37L286.72,94.9Z"/><path class="cls-21" d="M308.35,176.28l48.45-8.47s3.09,13.66,4.61,21.78.29,19.67.29,19.67-31.48,9.15-50.68,9.86C311,219.12,312.43,181.25,308.35,176.28Z"/><path class="cls-21" d="M310.73,219.41v-.31c0-.37,1.35-37.81-2.61-42.64l-.31-.38.48-.08L357,167.49l.06.26c0,.14,3.1,13.75,4.61,21.79s.3,19.63.29,19.75l0,.19-.19.05c-.31.09-31.72,9.17-50.74,9.87Zm-1.89-42.93c3.63,6,2.61,38.56,2.48,42.34,18.21-.75,47.51-9,50.11-9.78.15-1.53,1.09-12-.3-19.39s-4.11-19.57-4.54-21.51Z"/><path class="cls-25" d="M159,164.72a158.74,158.74,0,0,1,6.53-22.35c1.4-3.67,3-7.27,4.68-10.8l-.72-.16q-2.41,5.31-4.58,10.72a184.08,184.08,0,0,0-7.57,22.19c-.14.56-.27,1.12-.4,1.69l1.7.4C158.72,165.84,158.83,165.28,159,164.72Z"/><path class="cls-25" d="M158.81,166.75l-.68-.16-1.31-.31-.28-.07.19-.76c.09-.4.19-.8.29-1.2A181.25,181.25,0,0,1,164.59,142c1.48-3.67,3-7.28,4.6-10.72l.09-.21,1.3.27-.16.33c-1.74,3.58-3.31,7.21-4.68,10.78a158.85,158.85,0,0,0-6.51,22.31c-.07.32-.14.64-.2,1s-.1.48-.16.73Zm-1.58-1c.34.09.68.16,1,.24a.61.61,0,0,0,.21-.41c.07-.32.13-.64.21-1a158.27,158.27,0,0,1,6.53-22.39c1.33-3.48,2.86-7,4.54-10.5-1.68,3.34-3.19,6.87-4.63,10.46a181.89,181.89,0,0,0-7.55,22.16c-.1.4-.2.8-.29,1.19Z"/><path class="cls-25" d="M163,119.33c3.93-6.71,8.47-15.14,13.11-21.35,2.42-3.22,4.72-5.3,7.34-8.36l-2.05-.34c-2.32,2.82-5,6.54-7.11,9.51a159.47,159.47,0,0,0-12.27,20c-1.54,2.95-3,5.94-4.39,8.95l.76.14Q160.51,123.53,163,119.33Z"/><path class="cls-25" d="M158.5,128.2l-1.33-.25.15-.33c1.53-3.28,3-6.21,4.4-9a161.29,161.29,0,0,1,12.29-20l.43-.59c2-2.8,4.52-6.28,6.69-8.93a15.37,15.37,0,0,1,2.32.24l.5.08-.33.39c-1,1.17-2,2.2-2.91,3.2a61,61,0,0,0-4.42,5.14,179.2,179.2,0,0,0-10.57,16.95q-1.29,2.27-2.52,4.37c-1.61,2.78-3.16,5.65-4.6,8.54Zm-.51-.67.19,0c1.43-2.83,2.95-5.65,4.53-8.38.81-1.39,1.66-2.86,2.52-4.37a178.72,178.72,0,0,1,10.6-17,59,59,0,0,1,4.47-5.18c.82-.89,1.67-1.8,2.55-2.81l-1.38-.23c-2.14,2.61-4.59,6-6.57,8.77l-.42.59a158,158,0,0,0-12.25,20C160.84,121.57,159.45,124.39,158,127.53Z"/><path class="cls-25" d="M150.74,166a187.6,187.6,0,0,0-3.11,19.6c-.13,1.4-.27,2.8-.36,4.21a165.9,165.9,0,0,0-.29,19.06,103.29,103.29,0,0,1-1.25-19.14,124,124,0,0,1,2.94-24.43,1.8,1.8,0,0,1,.08-.39,8.78,8.78,0,0,1,1.52.88A1.9,1.9,0,0,0,150.74,166Z"/><path class="cls-25" d="M146.49,209.2v-.32a126.62,126.62,0,0,1-1.05-19.17,124.1,124.1,0,0,1,2.95-24.48c0-.1,0-.21.06-.33l.07-.29h.3a4.31,4.31,0,0,1,1.08.59c.17.11.35.23.51.32a1.61,1.61,0,0,0,.39.19l.28.05-.06.28a181.3,181.3,0,0,0-3.1,19.57c-.14,1.39-.28,2.8-.37,4.19a167.79,167.79,0,0,0-.29,19v.29l-.45,0ZM149,165.29a125.33,125.33,0,0,0-2.37,39.35c-.09-5.17,0-10.07.4-14.87.09-1.39.23-2.81.37-4.19a183.92,183.92,0,0,1,3.06-19.4l-.21-.11c-.25-.14-.43-.27-.62-.39A6.37,6.37,0,0,0,149,165.29Z"/><path class="cls-25" d="M201.71,130.57c-.43,1.56-.83,3.13-1.24,4.7l.95.1c.45-1.5.9-3,1.38-4.47q3.52-10.8,7.84-21.29c2.09-5,3.6-10.69,6.05-15.55-.8,0-.4-.12-1.2-.17-2.27,4.66-4.76,10.14-6.66,15A204,204,0,0,0,201.71,130.57Z"/><path class="cls-25" d="M201.62,135.67l-1.51-.16.09-.32c.4-1.56.81-3.13,1.23-4.7a208.2,208.2,0,0,1,7.14-21.74c1.69-4.31,4.06-9.63,6.67-15l.08-.17h.19a2.8,2.8,0,0,1,.66.1,1.78,1.78,0,0,0,.54.07l.42,0-.19.39a79.87,79.87,0,0,0-3.73,9.35c-.73,2-1.48,4.18-2.3,6.18-2.84,6.87-5.48,14-7.84,21.27-.45,1.4-.88,2.79-1.38,4.46Zm-.79-.65.38,0c.48-1.57.88-2.91,1.32-4.25,2.37-7.25,5-14.42,7.85-21.31.82-2,1.57-4.1,2.29-6.15a84.7,84.7,0,0,1,3.58-9,1.25,1.25,0,0,1-.24,0,1.63,1.63,0,0,0-.35-.06c-2.57,5.28-4.89,10.52-6.56,14.77A206.28,206.28,0,0,0,202,130.64C201.59,132.1,201.21,133.56,200.83,135Z"/><path class="cls-25" d="M208.54,137.34l-.85-.08q-1.89,7.43-3.53,14.9c-1.59,7.09-3.1,14.22-4.21,21.42l1.68.2c.8-7.19,1.74-14.38,3.18-21.48C205.84,147.26,207.1,142.28,208.54,137.34Z"/><path class="cls-25" d="M201.88,174.1l-2.25-.27,0-.29c1.12-7.3,2.69-14.62,4.21-21.44,1.19-5.39,2.35-10.27,3.53-14.91l.06-.24,1.44.14-.1.33c-1.49,5.12-2.75,10.14-3.72,14.94-1.54,7.6-2.47,15.11-3.18,21.45Zm-1.6-.77,1.1.13c.7-6.29,1.63-13.71,3.15-21.22,1-4.7,2.19-9.63,3.64-14.65l-.27,0c-1.16,4.56-2.29,9.36-3.46,14.65C202.93,159,201.39,166.15,200.28,173.33Z"/><path class="cls-25" d="M189.21,194.09c-.15,3.7-.11,7.41-.05,11.12,0,1.85.22,3.7.34,5.55s.28,3.7.45,5.54l.2,0c.08-3.7,0-7.39.08-11.07s.32-7.37.56-11.05c.44-6.77,1.1-13.53,1.86-20.27l-1.73-.2A199,199,0,0,0,189.21,194.09Z"/><path class="cls-25" d="M189.69,216.6l0-.28c-.17-1.83-.31-3.66-.45-5.54,0-.59-.09-1.19-.14-1.78-.1-1.24-.21-2.53-.21-3.8-.05-3.36-.1-7.28,0-11.12a202.35,202.35,0,0,1,1.72-20.42l0-.28.27,0,1.73.2.28,0,0,.28c-.88,7.86-1.47,14.3-1.85,20.26-.22,3.24-.45,7.09-.56,11,0,1.79,0,3.62,0,5.38s0,3.79,0,5.69v.25ZM191.16,174a199.29,199.29,0,0,0-1.67,20.09c-.15,3.82-.1,7.73-.05,11.1,0,1.25.11,2.52.21,3.75,0,.6.1,1.2.14,1.79l.12,1.65V210.6c0-1.77,0-3.6,0-5.4.11-4,.35-7.81.56-11,.38-5.91,1-12.27,1.83-20Z"/><path class="cls-25" d="M329.34,104.62a182.82,182.82,0,0,1,11.76,19.31c1.1,2.08,2.16,4.19,3.2,6.3l1.52-.24c-1.21-2.23-2.45-4.44-3.74-6.61-3.85-6.52-7.95-12.88-12.2-19.14-2.66-3.95-5.39-7.87-8.21-11.71l-1.54.16C323.33,96.56,326.44,100.51,329.34,104.62Z"/><path class="cls-25" d="M344.14,130.54l-.1-.19c-1.19-2.41-2.2-4.41-3.19-6.29a181.93,181.93,0,0,0-11.75-19.28c-2.6-3.69-5.52-7.48-9.19-11.91l-.34-.41.53,0,1.54-.17c2.79,3.57,5.48,7.4,8.48,11.85,4.67,6.88,8.66,13.14,12.2,19.15,1.18,2,2.37,4.07,3.75,6.61l.19.35ZM320.69,92.92c3.52,4.27,6.35,7.94,8.88,11.54a181,181,0,0,1,11.78,19.34c1,1.83,2,3.78,3.11,6.11l.92-.14c-1.3-2.38-2.43-4.37-3.54-6.24-3.55-6-7.53-12.25-12.19-19.13-3-4.38-5.61-8.17-8.11-11.57Z"/><path class="cls-25" d="M356.8,167.81c-.31.08-.63.14-.95.21a145,145,0,0,1,5.85,41.24h.2c1.4-14-.37-28.15-4-41.73Z"/><path class="cls-25" d="M362.15,209.56l-.74,0v-.28a145.08,145.08,0,0,0-5.83-41.15l-.08-.29,2.64-.61.07.27c3.93,14.84,5.26,28.91,4,41.82Zm-5.94-41.32A148.52,148.52,0,0,1,362,204.77a120.63,120.63,0,0,0-4.22-36.89Z"/><path class="cls-25" d="M342.66,149.19c2.92,6.93,3.29,10.87,5.44,18.05.17.55.33,1.1.49,1.64l1.05-.21,1.06-.23c-.16-.61-.33-1.21-.5-1.82a171.87,171.87,0,0,0-7.91-21.35c-1.8-4.08-3.78-8.08-5.88-12l-1.57.29C336.84,137.66,340.88,145,342.66,149.19Z"/><path class="cls-25" d="M348.39,169.21l-.21-.71c-.12-.39-.23-.78-.35-1.17-.75-2.52-1.28-4.6-1.79-6.61a71.81,71.81,0,0,0-3.64-11.42c-1.11-2.63-3.16-6.56-5-10-1.09-2.09-2.12-4.07-2.86-5.61l-.16-.34.37-.06.9-.17.88-.16.09.18c2.24,4.21,4.17,8.15,5.89,12a170.2,170.2,0,0,1,7.92,21.38c.14.5.28,1,.41,1.48l.18.64-1.36.29-.61.12Zm-13.13-35.46c.72,1.48,1.68,3.32,2.69,5.26,1.8,3.48,3.85,7.42,5,10.07a72.62,72.62,0,0,1,3.68,11.5c.5,2,1,4.08,1.78,6.58l.34,1.18.06.21.2,0,.6-.12.77-.17c-.15-.54-.28-1-.42-1.52a170.74,170.74,0,0,0-7.9-21.31c-1.69-3.83-3.58-7.7-5.77-11.82l-.46.08Z"/><path class="cls-25" d="M288.25,102.15l2.31,4.95c.72,1.67,1.38,3.37,2.06,5.06s1.35,3.39,2,5.1l1.73,5.18c.58,1.73,1.16,3.45,1.69,5.2l1.46,5.26c.28,1.07.58,2.13.87,3.2l1.31-.13-1.11-3.39-1.69-5.21c-.62-1.72-1.25-3.44-1.84-5.16L295.2,117c-.68-1.7-1.3-3.41-2-5.12l-1.9-5.14-2-5.09c-.7-1.69-1.33-3.41-2.08-5.08l-.39-.85-1.65,0,.74,1.43C286.75,98.83,287.47,100.51,288.25,102.15Z"/><path class="cls-25" d="M300.14,136.4l-.41-1.49c-.18-.64-.36-1.29-.53-1.93l-1.46-5.27c-.49-1.66-1.06-3.33-1.6-5l-1.81-5.4c-.4-1.08-.82-2.15-1.24-3.23-.25-.62-.49-1.23-.73-1.86l-.5-1.23c-.5-1.25-1-2.55-1.56-3.81l-2.3-5c-.29-.59-.56-1.18-.83-1.78-.48-1-1-2.11-1.51-3.14l-.94-1.84,2.29,0,.47,1c.5,1.1.95,2.24,1.38,3.34.23.58.46,1.17.7,1.75l2,5.09,1.91,5.14.66,1.76c.43,1.12.85,2.24,1.29,3.35l1.82,5.18c.44,1.28.9,2.55,1.36,3.82l.48,1.34,1.7,5.23c.2.62.41,1.24.61,1.86l.61,1.85ZM285.65,96.07l.52,1c.54,1,1,2.12,1.52,3.16.27.6.54,1.19.82,1.78l2.3,5c.56,1.28,1.08,2.58,1.58,3.84l.5,1.24c.24.62.48,1.24.73,1.86.42,1.07.84,2.15,1.25,3.24l1.81,5.41c.54,1.63,1.11,3.31,1.61,5l1.46,5.27c.17.65.35,1.29.53,1.93l.28,1,.72-.07-.39-1.19c-.21-.62-.41-1.24-.61-1.86l-1.7-5.21-.48-1.33c-.45-1.28-.91-2.55-1.35-3.83l-1.82-5.17c-.44-1.1-.86-2.23-1.29-3.35L293,112l-1.91-5.15-2-5.08-.7-1.75c-.43-1.1-.88-2.23-1.37-3.32l-.31-.68Z"/><path class="cls-25" d="M295.62,148.38c-.41-1.79-1-3.53-1.44-5.3l-1.5-5.28c-.05-.18-.11-.35-.17-.53l-1.39.07c.07.28.15.56.22.84l1.27,5.31c.91,3.52,1.63,7.09,2.39,10.64s1.38,7.14,2,10.71c.64,3.34,1.44,7.8,1.94,11.15.73-.08,1,.09,1.71,0-1-7-2.65-14.08-4.27-21Z"/><path class="cls-25" d="M298.72,176.31l0-.27c-.46-3-1.22-7.42-1.94-11.14l-.39-2.24c-.49-2.79-1-5.67-1.63-8.47l-.45-2.11c-.59-2.8-1.21-5.7-1.94-8.52l-1.27-5.32-.12-.45-.18-.71,2-.11.14.44c0,.1.06.21.1.31l1.5,5.28c.17.63.34,1.25.52,1.87.32,1.12.65,2.28.92,3.44,0,0,.79,6.65.79,6.65l.2.87c1.54,6.58,3.13,13.38,4.06,20.12l0,.29-.29,0a4.56,4.56,0,0,1-.91,0,3.45,3.45,0,0,0-.79,0Zm.65-.62.47,0a2.75,2.75,0,0,0,.51,0c-.94-6.62-2.5-13.3-4-19.77l-.21-.9-.79-6.64c-.26-1.14-.59-2.28-.91-3.4-.18-.62-.35-1.24-.52-1.87l-1.5-5.27c0-.1-.06-.2-.1-.3s-.83,0-.83,0l.13.5,1.27,5.31c.74,2.83,1.35,5.74,1.95,8.55l.44,2.1c.65,2.81,1.15,5.7,1.64,8.49l.39,2.23c.7,3.63,1.44,7.87,1.91,10.9Z"/><path class="cls-25" d="M312.18,197.22v5.48c0,1.83,0,3.66-.08,5.49-.15,3.64-.47,7.3-.94,10.91a260.83,260.83,0,0,0-2.82-42.82l2.18-.17c.23,1.56.4,3.11.53,4.66l.54,5.48C311.88,189.89,312,193.56,312.18,197.22Z"/><path class="cls-25" d="M311.44,219.46l-.45-.06h-.29l0-.3c.5-12.82-.33-26.42-2.62-42.78l0-.3.3,0,1.06-.09,1.11-.08.27,0,0,.27c.21,1.41.38,2.94.54,4.68l.53,5.47c.19,2.44.31,4.92.42,7.32,0,1.22.11,2.44.17,3.66v5.5c0,.65,0,1.29,0,1.93,0,1.17,0,2.38-.06,3.57-.15,3.58-.47,7.26-.95,10.94Zm-2.78-42.92a247.15,247.15,0,0,1,2.7,38.25c.22-2.23.37-4.44.46-6.61.06-1.18.06-2.39.06-3.55,0-.64,0-1.29,0-1.93v-5.48c-.07-1.21-.13-2.43-.18-3.65-.11-2.4-.22-4.88-.42-7.3l-.53-5.47c-.14-1.62-.3-3.06-.49-4.38l-.86.06Z"/><path class="cls-25" d="M252.45,117.31q.08,5.23.22,10.47c.11,3.34.29,6.69.43,10l1.15,0,.13-20.52.19-10.44.32-10.43a5.48,5.48,0,0,0-.81,0c-.46,0-.58-.83-1-.83-.1,3.47-.6,7.78-.61,11.24Z"/><path class="cls-25" d="M254.53,138.12l-1.7,0v-.26c0-1-.09-2-.14-3-.1-2.32-.22-4.72-.3-7.08-.09-3.33-.16-6.85-.22-10.48V106.83c0-1.94.17-4.15.32-6.29.12-1.68.25-3.42.29-5v-.28H253a.93.93,0,0,1,.75.54c.09.13.2.28.28.28l1.11,0v.29l-.32,10.48-.2,10.43Zm-1.16-.59h.6l.12-20.23.2-10.45.31-10.17h-.52a.94.94,0,0,1-.75-.53c-.07,1.38-.18,2.92-.29,4.41-.15,2.13-.31,4.33-.32,6.25v10.48c.05,3.62.13,7.14.22,10.46.08,2.36.19,4.75.3,7.08Z"/><path class="cls-25" d="M245,138.57l-1.08,0c.16,3.25.36,6.49.46,9.75.16,3.48.32,7,.41,10.45.17,6,.19,12.08.28,18.12l1.57,0c-.41-6.06-.89-12.11-1.19-18.17C245.16,152,245.05,145.31,245,138.57Z"/><path class="cls-25" d="M247,177.23l-2.15,0v-.28q0-3-.08-6c-.05-4-.1-8-.21-12.07-.07-3-.21-6.05-.34-9l-.06-1.46c-.07-2.3-.2-4.62-.32-6.88l-.15-2.87,0-.3,1.68,0v.29c0,7.78.16,14.2.44,20.19.22,4.33.53,8.73.83,13,.12,1.72.25,3.45.36,5.17Zm-1.59-.59h1c-.12-1.62-.23-3.24-.34-4.86-.31-4.26-.62-8.67-.83-13-.28-5.93-.43-12.27-.45-19.93h-.51c0,.86.09,1.72.14,2.58.12,2.26.24,4.59.32,6.89l.06,1.45c.13,3,.27,6,.34,9,.11,4,.16,8.12.21,12.09C245.33,172.8,245.35,174.72,245.38,176.64Z"/><path class="cls-25" d="M339.75,89.22c-9.84,1.37-19.69,2.43-29.55,3.35l-1.69.16q-5.73.52-11.49,1c-3.56.32-7.13.64-10.7.92l-1.67.12c-3,.22-6,.41-9.07.53-6.88.25-13.77.24-20.65,0l-.85,0-1.31-.06q-10.08-.37-20.14-1c-2.21-.14-4.42-.31-6.62-.48l-2.38-.19q-6.19-.51-12.39-1.14-6.9-.68-13.78-1.55l-2.56-.33q-13.12-1.74-26.16-4.22l-.05.2a234.24,234.24,0,0,0,24.88,5.61l2.42.41q7.48,1.22,15,2.06,5.79.61,11.61,1l2.35.15c2.52.15,5,.29,7.55.4,6.73.3,13.46.37,20.18.27l1.38,0,.81,0L275.6,96l9.58-.16,1.65,0c3.44-.07,6.88-.17,10.31-.34,4.26-.22,8.51-.58,12.75-1l1.53-.17q3.6-.39,7.18-.87c7.12-1,14.21-2.23,21.19-3.94Z"/><path class="cls-25" d="M247,96.77c-5,0-9.81-.11-14.49-.32-2.27-.09-4.74-.23-7.56-.4l-.33,0-2-.13c-4.21-.28-8-.61-11.62-1-5-.57-10.11-1.26-15-2.06l-2.43-.41a234.83,234.83,0,0,1-24.91-5.61l-.26-.08.18-.73.26,0c8.59,1.64,17.39,3.06,26.15,4.22l1.86.24.7.09c4.71.6,9.35,1.12,13.77,1.55,4.25.43,8.42.81,12.39,1.14l2.37.19q3.3.26,6.62.47c6.91.42,13.68.76,20.13,1l.61,0c.24,0,.47,0,.71,0l.84,0c7.33.23,14.08.22,20.63,0,2.64-.1,5.52-.27,9.06-.53l.79,0,.88-.06c3.52-.27,7.08-.6,10.54-.9,4-.34,7.89-.67,11.65-1l1.68-.17c11.28-1,20.67-2.11,29.54-3.34l.27,0,.14.74-.26.06a213.87,213.87,0,0,1-21.22,3.94c-2.17.29-4.45.57-7.18.88l-1.54.16c-4.56.48-8.74.82-12.76,1-3,.15-6.19.25-10.32.33l-1.65,0-4.79.08-4.79.08-21.53.47h-1.37C250.79,96.75,248.89,96.77,247,96.77ZM172.88,87.4c6.57,1.74,13.39,3.21,20.74,4.47l2.42.41c4.91.8,10,1.49,15,2,3.6.39,7.4.72,11.6,1l2,.12.34,0c2.81.18,5.28.31,7.55.41,6.45.28,13.23.37,20.16.26h.57l.8,0,21.53-.46,4.79-.08,4.79-.08,1.64,0c4.13-.08,7.31-.18,10.31-.33,4-.21,8.18-.55,12.73-1l1.53-.17c2.73-.3,5-.58,7.17-.88,6.58-.92,12.2-1.91,17.39-3-7.77,1-16.05,1.93-25.72,2.83l-1.69.16c-3.76.35-7.63.68-11.49,1-3.62.32-7.19.64-10.7.91l-.89.06-.79.06c-3.55.26-6.44.43-9.07.53-6.57.24-13.33.26-20.68,0l-.84,0-.71,0-.61,0c-6.45-.24-13.23-.58-20.15-1q-3.31-.21-6.62-.47l-2.38-.2c-4-.32-8.14-.7-12.4-1.13-4.43-.44-9.06-1-13.78-1.56l-.7-.09-1.87-.24C187.52,89.87,180.14,88.71,172.88,87.4Z"/><path class="cls-25" d="M218.83,63.52a141.22,141.22,0,0,0-23.75,19.61c-2.07,2.13-4.08,4.35-6,6.61-.34.38-.66.77-1,1.16.86.11.66.14,1.52.26.33-.37.82-1.17,1.15-1.54,1.64-1.85,3.91-4.36,5.64-6.14a160.91,160.91,0,0,1,23.68-20.36s.61.67.6.67C220,63.71,219.44,63.62,218.83,63.52Z"/><path class="cls-25" d="M189.7,91.46c-.59-.08-.76-.12-.93-.15a7,7,0,0,0-.74-.13l-.51-.07.39-.46c.31-.37.62-.74.94-1.1,2.08-2.43,4.05-4.59,6-6.62a140.69,140.69,0,0,1,23.79-19.64,1.25,1.25,0,0,1,.47,0,2.25,2.25,0,0,0,.75-.39l1-.72-.51.91.14.15c.45.5.46.51.37.69l-.09.18-.2,0-1.17-.17a159.55,159.55,0,0,0-22.87,19.77c-1.75,1.82-4.05,4.36-5.62,6.14a8.26,8.26,0,0,0-.56.74,9.22,9.22,0,0,1-.6.8Zm-1.09-.77.28.06c.14,0,.28.06.58.1.14-.17.3-.4.46-.62a9.22,9.22,0,0,1,.6-.8c1.57-1.78,3.88-4.33,5.64-6.15a157.83,157.83,0,0,1,19.3-17.15,142.57,142.57,0,0,0-20.18,17.2c-2,2-3.94,4.17-6,6.6C189.05,90.18,188.83,90.44,188.61,90.69Z"/><path class="cls-25" d="M242,65.48c-5.48,7.69-15.42,28.94-15.54,29.24.79,0,.66.43,1.45.4-1.45.33,10.27-22.26,15.49-30.34L243,65C242.47,65,242.47,65.5,242,65.48Z"/><path class="cls-25" d="M227.84,95.41a1.35,1.35,0,0,1-.85-.25,1.07,1.07,0,0,0-.56-.16L226,95l.15-.4c.06-.16,10.08-21.61,15.57-29.3a1.11,1.11,0,0,0,.55-.27.92.92,0,0,1,.61-.29c.38-.26.39-.28.52-.26l.42.08-.23.36c-5,7.8-15.81,28.58-15.57,30-.17-.14-.1.42-.1.42Zm-1-.93a1.47,1.47,0,0,1,.45.2.94.94,0,0,0,.22.12c.56-3.34,10.58-22.08,15-29.2a.7.7,0,0,1-.39.16C237,73,228.15,91.69,226.85,94.48Z"/><path class="cls-25" d="M272,65.13c-.48,0-.39-.35-.87-.35,0,0,2.42,13.68,3.33,21.9.22,1.89.32,7.18.51,9.09,0,0,.51-.3.51-.26.34.17.78,0,.77-.26-.1-2-.61-3.65-.77-5.63A208,208,0,0,0,272,64.91h-.39Z"/><path class="cls-25" d="M275,96.05a18.86,18.86,0,0,1-.51-4.5c-.08-1.89-.17-3.85-.28-4.84-.79-7.16-2.73-18.44-3.31-21.73,0-.1,0-.17,0-.22l-.21-.13h.25c.46-.13.61-.07.71,0h.66l0,.22c0,.16.67.55.67.55h-.55a211.55,211.55,0,0,1,3.35,24.19,26,26,0,0,0,.37,2.61,25.27,25.27,0,0,1,.39,3,.55.55,0,0,1-.27.48,1,1,0,0,1-.78.1C275.19,96,275.08,96.05,275,96.05Zm-3.46-30.77c.64,3.72,2.47,14.46,3.23,21.36.12,1,.2,3,.28,4.89.06,1.46.12,2.86.2,3.79.17-.11.27-.13.4-.06a.39.39,0,0,0,.36,0c-.07-1-.24-2-.4-2.91a26.39,26.39,0,0,1-.38-2.67,207.23,207.23,0,0,0-3.36-24.23A.78.78,0,0,1,271.52,65.28Z"/><path class="cls-25" d="M315.81,92l-3.32-3.56a75.39,75.39,0,0,0-5.38-7.68c-2.14-3.1-10-12.68-10-12.68l-3.68-4.57-.51.08-1,.12a247.48,247.48,0,0,1,20.26,25.88l1.46,2.62.55.81,2.12-.11Z"/><path class="cls-25" d="M314.1,93.34l-.64-.94L312,89.76a243.36,243.36,0,0,0-20.23-25.83l-.42-.47H292l1.58-.2c.12.11,3.8,4.67,3.8,4.67s7.88,9.63,10,12.69c.58.8,1.1,1.49,1.58,2.13a51.47,51.47,0,0,1,3.8,5.57l3.33,3.56.8,1.32-.48,0-1.06.06-1.06.06ZM292.54,64a242.63,242.63,0,0,1,19.93,25.51l1.47,2.64.45.66.9-.05.59,0-.29-.48-3.31-3.54a52.83,52.83,0,0,0-3.81-5.57c-.48-.64-1-1.33-1.58-2.14-2.12-3-9.9-12.56-10-12.66l-3.58-4.44Z"/><path class="cls-25" d="M296.83,62.18c-1.42.17-2.83.31-4.24.45q-.73.09-1.47.15c-1.15.12-2.29.23-3.44.33-.35,0-.71.08-1.05.11-2.4.22-4.81.43-7.2.62s-4.47.4-6.71.57a5.11,5.11,0,0,1-.55,0l-.5,0-1.21.08c-1.49.11-3,.19-4.47.25-4.31.16-8.63.15-12.94,0-.17,0-.36,0-.53,0l-.83,0q-3.75-.14-7.49-.33l-1.45-.07-3.68-.22c-1.38-.08-2.76-.19-4.14-.3l-1.49-.12c-2.59-.21-5.17-.45-7.76-.71-1.15-.11-2.3-.23-3.43-.37l-1.77-.19L217,62.07l-1.61-.21c-1.17-.15-2.34-.31-3.52-.49-.62.21-1.25.42-1.86.64,1.51.31,3,.58,4.56.85l1.51.25c.9.15,1.8.29,2.7.41.62.1,1.22.19,1.84.27,1.64.23,3.25.43,4.87.61,2.42.26,4.85.47,7.27.63l1.48.09c1.58.1,3.15.19,4.73.26,1,0,2,.08,2.92.1l1.56,0q4.09.09,8.17,0H253l13-.29,4.56-.08,1.45,0h1c2.17-.05,4.32-.11,6.47-.21,2.66-.15,5.32-.36,8-.65l1-.1c1.18-.13,2.34-.27,3.52-.42l1-.12.51-.08c1.66-.23,3.32-.5,5-.78C297.89,62.55,297.36,62.37,296.83,62.18Z"/><path class="cls-25" d="M248.13,65.86c-1.52,0-3.07,0-4.63,0l-1.55,0L239,65.66c-1.58-.07-3.16-.15-4.74-.26l-1.47-.09c-2.54-.17-5-.38-7.29-.62-1.6-.18-3.23-.39-4.85-.61l-1.6-.23-.26,0-2.71-.41-1.52-.26c-1.8-.32-3.25-.59-4.57-.85l-1-.21,1-.34c.61-.22,1.24-.43,1.86-.64l3.65.48c.54.06,1.08.14,1.61.21l3.43.41,1.76.19c1.14.14,2.29.26,3.43.37,2.31.23,5,.49,7.76.71l1.49.12c1.38.11,2.76.21,4.14.29l3.65.22.74,0,.72,0q3.88.21,7.5.34l.83,0h.54c4.6.13,8.83.13,12.91,0,1.57-.06,3-.15,4.46-.25l1.21-.09.51,0,.52,0c2-.15,4.1-.33,6.72-.57,2.4-.2,4.81-.4,7.2-.63.45,0,.75-.06,1-.1,1.15-.1,2.3-.21,3.44-.34l1.45-.14c1.46-.15,2.86-.29,4.25-.45.67.2,1.2.38,1.73.59l.94.37-1,.18c-1.77.3-3.4.56-5,.79L292,64c-1.19.15-2.36.29-3.54.42l-.87.1c-2.76.29-5.45.51-8.1.65-2.27.11-4.54.17-6.47.22h-1.16l-1.31,0h-.51l-4.06.07-13.48.3h-.86C250.51,65.85,249.33,65.86,248.13,65.86Zm-37-3.93c1,.21,2.19.42,3.52.65l1.52.25c.89.15,1.79.29,2.69.41l.28,0,1.56.23c1.64.23,3.27.43,4.86.61,2.3.24,4.74.46,7.27.63l1.47.09c1.57.1,3.15.18,4.72.25,1,0,1.95.09,2.92.11l1.55,0c2.8.06,5.54.07,8.17,0h.84l2.88-.07L253,65.13h-.54l-.82,0c-2.43-.09-5-.2-7.5-.34l-.73,0-.71,0-3.68-.22c-1.39-.08-2.77-.18-4.16-.29L233.42,64c-2.74-.21-5.46-.48-7.77-.7L222.21,63l-1.76-.2L217,62.35l-1.61-.2c-1.16-.15-2.31-.32-3.46-.49Zm85.66.54c-1.37.16-2.75.3-4.13.44l-1.52.15c-1.14.12-2.29.24-3.44.34l-.9.09c-2.55.24-4.95.44-7.35.63-2.62.24-4.75.43-6.71.58l-.55,0-.5,0-1.21.08-.33,0h.4l1.32,0H273c1.92,0,4.19-.11,6.45-.22,2.64-.14,5.32-.36,8-.64l1-.1c1.18-.14,2.35-.27,3.52-.42l1.48-.2c1.25-.18,2.54-.38,3.91-.61Z"/><path class="cls-25" d="M368.29,124.3a257.24,257.24,0,0,1-32.71,7.39l-1.52.24c-7.42,1.16-14.86,2.11-22.32,2.95-3.35.39-6.72.75-10.08,1.09l-1.31.13c-5.93.58-11.87,1.06-17.83,1.36-9.41.47-18.85.55-28.27.37h-1.07q-14.75-.36-29.3-1.33-7.37-.5-14.72-1.23l-.93-.1q-6.76-.67-13.5-1.54-11.92-1.49-23.76-3.69l-.76-.14c-11.06-2.09-19.47-4.68-30.28-7.92l-.06.19c10.45,3.91,18.66,7,29.57,9.35l.72.16c8,1.73,16.15,3.12,24.29,4.22,4.4.59,8.82,1.06,13.24,1.47l.85.08c5.07.45,10.15.8,15.22,1.08,9.8.53,19.6.68,29.4.52l1.09,0c9.44-.15,18.87-.44,28.3-.78,6-.22,12.09-.45,18.13-.79l1.39-.07c3.28-.2,6.57-.41,9.85-.7q11.5-1,22.92-3l1.57-.29c1.55-.28,3.1-.55,4.64-.86a172.92,172.92,0,0,0,27.31-7.89Z"/><path class="cls-25" d="M245.8,139.28c-7.52,0-14.9-.19-22.05-.58-5.28-.28-10.41-.64-15.23-1.07l-.86-.09c-4.85-.44-9.19-.92-13.25-1.47-8.45-1.14-16.62-2.57-24.31-4.23l-.72-.15c-11.06-2.42-19.25-5.48-29.61-9.36l-.26-.1.25-.71,1.76.53c10.18,3,18.21,5.47,28.74,7.46l.77.14c7.74,1.45,15.72,2.69,23.73,3.69,4.32.55,8.86,1.07,13.49,1.54l.93.1c4.91.48,9.86.9,14.72,1.23,9.78.65,19.6,1.09,29.21,1.32l.07.29v-.29l1.07,0c10.11.19,19.36.07,28.26-.37,5.37-.27,11.2-.72,17.81-1.37l1.31-.13c3.63-.36,6.93-.72,10.08-1.09,8.36-.94,15.65-1.9,22.3-2.94l1.52-.24A259.38,259.38,0,0,0,368.21,124l.27-.08.23.72-.25.09a170.91,170.91,0,0,1-27.36,7.91c-1.24.25-2.49.47-3.74.7l-1.56.28-.91.17c-7.58,1.33-15.3,2.35-22.95,3-3.61.31-7.16.53-9.85.69l-1.4.08c-6.13.34-12.34.58-18.13.78-10.86.4-19.85.65-28.31.79l-1.07,0C250.71,139.26,248.24,139.28,245.8,139.28ZM145.19,123.74a174.62,174.62,0,0,0,24.31,7.4l.72.15c7.67,1.66,15.83,3.07,24.26,4.22,4.06.54,8.39,1,13.23,1.47l.86.08c4.82.43,9.94.79,15.21,1.07,9.46.52,19.34.69,29.38.52l1.08,0c8.45-.14,17.44-.39,28.3-.79,5.79-.2,12-.44,18.12-.78l1.4-.08c2.68-.16,6.23-.38,9.83-.69,7.63-.69,15.34-1.71,22.9-3l.9-.17,1.56-.28c1.25-.23,2.5-.45,3.74-.7a168.52,168.52,0,0,0,22.56-6.17,258.08,258.08,0,0,1-27.93,6l-1.52.25c-6.66,1-14,2-22.33,2.94-3.15.37-6.45.72-10.08,1.09l-1.32.13c-6.62.65-12.45,1.09-17.83,1.37-8.92.43-18.18.55-28.3.36h-1.15c-9.61-.23-19.44-.67-29.23-1.32-4.87-.33-9.82-.75-14.73-1.24l-.93-.09c-4.64-.47-9.19-1-13.51-1.55-8-1-16-2.24-23.77-3.69l-.77-.14A234.57,234.57,0,0,1,145.19,123.74Z"/><path class="cls-25" d="M380.25,159.78a190.81,190.81,0,0,1-29.55,8.66l-1.06.23-1.05.21c-4.94,1-9.9,1.93-14.88,2.67-5.34.79-10.68,1.62-16,2.23-2.44.31-4.89.6-7.33.88l-2.18.24c-2.2.24-4.4.48-6.6.69-2.69.25-5.39.49-8.09.7s-5.39.35-8.09.5c-9.82.54-19.66.64-29.48.49l-1.57,0-1.4,0q-16.23-.39-32.39-1.6-8.09-.62-16.13-1.53l-2.77-.33-1.68-.2-3.59-.43c-2.68-.36-5.36-.68-8-1.1-10-1.5-19.91-3.34-29.74-5.64l-1.7-.4a248.87,248.87,0,0,1-30.25-9.51l0-.32-.21,0,0,.39a191,191,0,0,0,29.73,10.89l.36.1,1.74.46a279.49,279.49,0,0,0,29.77,6.1c3.87.61,7.75,1.13,11.64,1.59l1.73.19c6.32.71,12.66,1.24,19,1.64,10.83.7,21.68.93,32.52.8l1.43,0,1.61,0c9.83-.14,19.64-.46,29.45-.81,5.41-.23,10.82-.47,16.24-.77,2.23-.13,4.47-.29,6.71-.45l2.18-.17q3.66-.29,7.32-.64A267.82,267.82,0,0,0,349,170.41l1-.21,1.13-.27a149.88,149.88,0,0,0,29.22-10Z"/><path class="cls-25" d="M247.31,178.68c-9.29,0-18.33-.28-26.94-.83-6.75-.44-13-1-19-1.65l-1.74-.19c-4.13-.49-7.94-1-11.64-1.59a281.61,281.61,0,0,1-29.8-6.11l-.49-.13-1.25-.32-.37-.1A198.18,198.18,0,0,1,126.38,157l-.16-.07-.08-.2,0-.74.75-.06.06.41a246,246,0,0,0,30,9.44l1.31.3.4.1c9.37,2.2,19.09,4,29.72,5.64,1.8.28,3.64.52,5.41.75l2.6.35,8,1c5.37.61,10.79,1.13,16.12,1.53,10.53.79,21.42,1.33,32.37,1.6l3,0c10.82.16,20.46,0,29.46-.49,2.57-.14,5.32-.3,8.09-.5,2.52-.2,5.16-.43,8.08-.7,2.28-.22,4.6-.47,6.6-.69l.88-.1,1.29-.14c2.45-.28,4.89-.57,7.34-.88,4.57-.52,9.19-1.21,13.66-1.87l2.38-.36c4.76-.71,9.76-1.6,14.86-2.66l.45-.1.6-.12,1.06-.23a190,190,0,0,0,29.51-8.64l.25-.1.3.7-.25.11a149.89,149.89,0,0,1-29.28,10l-.5.12-.63.15-.54.12-.41.09a270.34,270.34,0,0,1-31.21,5.06c-2.14.21-4.47.42-7.33.65l-1.63.12-.55,0c-2,.15-4.36.31-6.72.45-5.32.3-10.5.53-16.24.78-9.36.33-19.34.66-29.45.81l-2.19,0h-.86C251,178.66,249.17,178.68,247.31,178.68Zm-115.2-19.87a185.12,185.12,0,0,0,24.11,8.4l.37.1,1.25.32.48.13a284.06,284.06,0,0,0,29.74,6.1c3.7.58,7.5,1.1,11.63,1.58l1.73.2c6,.67,12.25,1.21,19,1.64,10.32.66,21.25.93,32.49.79h.86l2.19,0c10.1-.14,20.08-.48,29.44-.81,5.73-.25,10.91-.48,16.23-.78,2.35-.13,4.71-.3,6.71-.45l.55,0,1.63-.12c2.85-.23,5.18-.43,7.32-.65A266.83,266.83,0,0,0,349,170.13l.42-.09.53-.11.63-.15.5-.13A153.29,153.29,0,0,0,375,162a192.74,192.74,0,0,1-24.22,6.7l-1.06.23-.61.12-.45.09c-5.11,1.06-10.12,2-14.89,2.67l-2.38.36c-4.47.67-9.1,1.35-13.68,1.87q-3.66.47-7.33.89l-1.3.14-.88.09c-2,.22-4.32.48-6.6.69-2.93.27-5.58.51-8.09.71-2.78.2-5.54.35-8.11.49-9,.5-18.66.66-29.5.5l-3,0c-11-.27-21.87-.81-32.41-1.6-5.33-.41-10.76-.92-16.14-1.54l-8-1-2.6-.34c-1.78-.24-3.62-.48-5.43-.76-10.64-1.6-20.38-3.45-29.76-5.65l-.4-.09-1.31-.31A233.59,233.59,0,0,1,132.11,158.81Z"/><path class="cls-26" d="M306.48,218.2c0,.2,0,.41,0,.61s0,.52,0,.76l-.29,0c-13.27,1.22-28.28,2-45.23,2.21l-4.61,0c-17.59.08-33.55-.64-48-2-.31,0-.61,0-.92-.07-2.45-.23-4.84-.48-7.2-.75a.68.68,0,0,1-.2,0,4.57,4.57,0,0,1,0-.82,60.17,60.17,0,0,1,11.23-35.32,54.91,54.91,0,0,1,4.62-5.63c.6-.64,1.2-1.25,1.81-1.84a51.55,51.55,0,0,1,27.25-14,6.17,6.17,0,0,1,.75-.12,47.81,47.81,0,0,1,7.6-.59,50.37,50.37,0,0,1,10.41,1.09,51.78,51.78,0,0,1,26.3,14.77c.25.24.47.49.69.73a57.59,57.59,0,0,1,12.08,19.66A61.11,61.11,0,0,1,306.48,218.2Z"/><path class="cls-26" d="M306.51,218.2v.61l0,.76a1.38,1.38,0,0,1-.31.07c-17.62,1.66-35.31,2.37-53,2.46a478.33,478.33,0,0,1-53-3l-.21,0a60.87,60.87,0,0,1,2.77-19.72,59.82,59.82,0,0,1,9-17.64,55,55,0,0,1,14.53-13.5,50.58,50.58,0,0,1,18.51-7.13,49.68,49.68,0,0,1,23.69,1.67,51.45,51.45,0,0,1,20.33,12.32A58,58,0,0,1,302,194.89,61.29,61.29,0,0,1,306.51,218.2Zm-.06,0A61.2,61.2,0,0,0,301.81,195a57.41,57.41,0,0,0-13.29-19.51,52.68,52.68,0,0,0-20.17-12.14,49.06,49.06,0,0,0-23.41-1.68,50.47,50.47,0,0,0-18.36,7A54.89,54.89,0,0,0,212.07,182a59,59,0,0,0-9.09,17.5A61.26,61.26,0,0,0,200.06,219c0-.08.15-.07.15-.07a490.54,490.54,0,0,0,53,2.66c17.67.07,35.37-.5,53-2l.24,0s0-.73,0-.73Z"/><path class="cls-27" d="M306.47,218.81c0,.26,0,.52,0,.76l-.29,0c-13.27,1.22-28.28,2-45.23,2.21l-4.61,0c-17.59.08-33.55-.64-48-2,11.44-18.8,33.55-31.53,59-31.53a72.24,72.24,0,0,1,35.4,9.1A68.28,68.28,0,0,1,306.47,218.81Z"/><path class="cls-27" d="M253.77,222.13c-16,0-31.25-.67-45.47-2l-.45,0,.24-.39c11.88-19.53,34.58-31.66,59.21-31.66a72.72,72.72,0,0,1,35.54,9.13,66.56,66.56,0,0,1,3.91,21.63c0,.27,0,.53,0,.78l0,.27h-.27c-14,1.29-29.23,2-45.51,2.24l-4.63,0Zm-45-2.51c14.82,1.36,30.79,2,47.5,1.94l4.62,0c16.27-.21,31.48-.95,45.21-2.21a2.19,2.19,0,0,0,0-.51,67.87,67.87,0,0,0-3.71-21.18,72.09,72.09,0,0,0-35.17-9C243,188.62,220.66,200.48,208.81,219.62Z"/><path class="cls-20" d="M197.34,223.25,187,221.45s-32.2,6.07-34.94,4.31-19.68-3.59-19.68-3.59l-23.75,7.38L110.48,205s-21.86-3.7-21.71-6.1,13.71-8.38,13.71-8.38l11-3.81c1.75-.69,27.05-3.81,27.05-3.81l4.6,5.66,8.53,9.32,12.93,2.38,17.51,1.85,15.66,13.75s3.88,5,5.53,5.9S197.34,223.25,197.34,223.25Z"/><path class="cls-20" d="M108.28,229.94l0-.41,1.87-24.33c-5.46-.94-21.84-3.94-21.7-6.35s12.48-8,13.88-8.63l11.07-3.82c1.75-.69,26.08-3.69,27.11-3.82.26.1,4.86,5.76,4.86,5.76l8.46,9.24,12.83,2.36,17.58,1.86L200,215.61c.07.09,3.9,5,5.48,5.86.35.19.35.43.33.55-.15.65-3,1.16-8.45,1.51-.07,0-10.39-1.79-10.39-1.79-3.54.67-32.36,6-35.09,4.26-2.57-1.66-18.41-3.42-19.5-3.54Zm32.17-46.77c-8.78,1.08-25.47,3.23-26.82,3.77l-11.06,3.81c-5.16,2.28-13.42,6.51-13.52,8.13-.08,1.34,10.86,4,21.48,5.8l.26,0-1.88,24.43,23.41-7.27c.76.08,17.11,1.86,19.87,3.64,2.18,1.4,25.8-2.66,34.72-4.35.06,0,10.45,1.79,10.45,1.79,3.34-.22,7-.65,7.77-1-1.71-1-5.38-5.73-5.54-5.94L184,202.34l-17.42-1.84-13-2.4-8.6-9.39Z"/><path class="cls-21" d="M187,221.45s-32.2,6.07-34.94,4.31-19.68-3.59-19.68-3.59l-23.75,7.38,14.36-12L133.59,211c.14-2.4,11.59-22.52,11.59-22.52l-.59,19.18L154,221.07l12.62-20.85,8.91,12.54Z"/><path class="cls-21" d="M107.32,230.24l15.46-12.85,10.55-6.52c.53-3,11.14-21.68,11.6-22.49l.57-1-.62,20.23L154,220.55l12.62-20.85,9.14,12.86,11.89,9.05-.63.12c-3.31.63-32.39,6-35.14,4.27-2.57-1.66-18.41-3.42-19.5-3.54Zm37.54-40.58c-3.49,6.18-10.88,19.59-11,21.4,0,.14-10.76,6.79-10.76,6.79l-13.23,11,22.44-7c.76.08,17.11,1.86,19.87,3.64,2.12,1.37,24.74-2.48,34.1-4.23l-11-8.36-8.66-12.19L154,221.59l-9.74-13.81C144.31,207.69,144.86,189.66,144.86,189.66Z"/><path class="cls-28" d="M460.14,229.92c2.09-1.84,37.71-15,37.71-15l42.28,7-47.05-.15Z"/><path class="cls-28" d="M459.08,230.48l.87-.77c2.11-1.86,36.35-14.57,37.8-15.11.15,0,42.42,7,42.42,7l0,.57L493.08,222Zm38.8-15.32c-10.57,3.92-29.43,11.08-35.62,13.94L493,221.41l43.58.14Z"/><path class="cls-28" d="M392.4,248.77l-15.24-4.57-24.38,7.62-38.89,3.06L269,261H241.53l-16.76-12.19-21.33,3-32-9.15,38.09,1.53,10.67-4.57c9.14-10.67,13.71-1.53,13.71-1.53l16.77,10.67h15.24l44.44,3.56,25.91-3.05L359.89,245l2-12.19,1.52,11.43,14.73-3.81Z"/><path class="cls-28" d="M241.53,261.25c-.09,0-16.83-12.18-16.83-12.18l-21.28,3-34.34-9.82,40.4,1.62L220,239.39c3.25-3.78,6.29-5.53,9.1-5.18a7.11,7.11,0,0,1,5,3.69l16.63,10.59h15.16L310.38,252l25.86-3,23.4-4.28L362,230.85l1.73,13,14.54-3.75,16.34,9.63-17.4-5.22-24.3,7.59-38.95,3.08L269,261.24Zm.1-.57H269l44.89-6.08,38.91-3.07,24.4-7.63,13.07,3.93-12.1-7.14-14.93,3.86-1.31-9.87-1.75,10.53-23.82,4.35-25.93,3.05-44.5-3.55H250.6L233.7,238.3c0-.1-1.62-3.15-4.64-3.52-2.63-.35-5.51,1.37-8.64,5-.11.08-10.83,4.68-10.83,4.68l-35.79-1.44,29.66,8.48,21.39-3.06Z"/><polygon class="cls-28" points="606.16 205.87 537.03 218.33 619.34 208.35 606.16 205.87"/><path class="cls-28" d="M537.06,218.61l-.08-.56,69.18-12.47,15,2.83Zm69.1-12.45-59.39,10.7,70.71-8.57Z"/><polygon class="cls-28" points="506.18 195.43 578.82 198.48 495.51 203.56 506.18 195.43"/><path class="cls-28" d="M494.6,203.9l11.49-8.75,72.74,3v.57Zm11.67-8.18-9.84,7.5,76.86-4.69Z"/><polygon class="cls-28" points="495.99 203.05 449.8 198.48 390.2 212.2 495.99 203.05"/><path class="cls-28" d="M390.22,212.48l-.09-.56,59.65-13.72L496,202.77v.57Zm59.59-13.71-55.6,12.79,98.7-8.53Z"/></g></g></svg>